<svg width="491" height="491" viewBox="0 0 491 491" fill="none" xmlns="http://www.w3.org/2000/svg">
<path d="M387.981 224.15V225.285C386.437 225.966 384.983 224.695 383.848 224.104C382.894 223.604 381.94 223.014 380.986 222.469C380.805 222.424 380.669 222.333 380.487 222.287L380.714 222.651C381.032 223.377 381.395 224.104 381.668 224.695C380.714 225.058 379.942 225.149 379.578 225.558C378.715 226.511 378.08 226.693 377.489 225.603C376.535 223.832 374.764 223.196 373.719 222.469C372.493 223.014 371.584 223.423 370.721 223.832C370.631 223.695 370.585 223.604 370.494 223.468C370.131 224.467 369.813 225.558 369.359 226.511C369.177 226.875 368.496 227.284 368.132 227.193C367.497 227.056 366.906 226.648 366.316 226.239C366.043 226.057 366.361 225.648 366.361 225.33C366.316 224.104 365.771 222.878 365.771 221.515C363.863 223.604 362.182 226.148 358.821 225.83C358.503 224.922 358.185 224.013 357.913 223.15C357.731 222.514 357.277 221.742 357.459 221.288C357.913 220.334 357.459 219.925 356.777 219.517C353.598 217.609 351.236 214.975 349.147 211.977C348.102 210.478 346.739 209.252 345.422 207.798C345.513 209.297 345.604 211.613 345.649 212.84C328.026 210.796 334.249 208.979 333.749 208.162C333.204 208.843 332.659 209.57 332.023 210.251C331.478 210.796 330.888 211.386 330.206 211.704C329.162 212.204 327.981 212.476 326.845 212.84C324.62 213.567 324.166 213.385 322.939 211.432C322.894 211.341 322.667 211.296 322.53 211.25C320.441 210.569 318.579 209.615 316.944 207.934C315.036 205.981 312.765 204.392 310.131 203.392C309.813 203.256 309.495 203.074 309.222 202.847C307.542 201.485 305.907 200.122 303.681 199.668C303.045 199.532 302.455 199.077 301.955 198.623C298.912 196.261 296.096 193.627 293.507 190.675C290.918 187.722 287.421 186.587 284.286 184.089C283.969 183.816 283.333 182.59 282.924 182.635C281.97 182.726 282.197 182.999 281.062 183.271C282.515 186.814 282.697 190.402 284.332 193.854C286.194 197.851 289.146 201.076 292.28 204.165C294.551 206.39 296.55 208.888 298.639 211.296C300.093 212.976 301.455 214.702 302.954 216.337C304.68 218.199 306.633 219.925 308.359 221.833C310.539 224.24 312.583 226.784 314.627 229.282C316.671 231.735 318.715 234.187 320.668 236.731C323.166 240.001 325.755 243.271 328.026 246.723C330.524 250.493 332.886 254.445 335.021 258.442C336.338 260.849 336.974 263.62 338.246 266.027C339.563 268.616 339.427 271.568 340.517 274.248C341.516 276.701 339.654 279.017 338.7 281.243C337.474 284.059 335.839 286.739 334.431 289.464C333.613 291.008 332.841 292.598 332.023 294.188C331.433 293.734 331.66 295.323 331.387 295.323C329.661 295.232 329.979 293.279 329.934 291.463C329.889 290.418 328.617 289.328 328.526 288.465C326.391 289.464 324.438 290.6 322.349 291.281C320.396 291.917 318.67 292.78 317.035 293.961C315.763 294.914 314.536 295.914 313.174 296.686C309.449 298.821 305.725 301.001 301.819 302.818C299.411 303.953 296.777 304.725 294.143 305.225C291.236 305.815 288.238 305.906 285.286 306.224C284.604 306.315 283.741 306.678 283.333 306.406C281.334 304.998 279.154 305.043 276.928 305.134C276.383 305.179 275.838 305.497 275.021 305.815C275.929 306.633 276.52 307.133 277.11 307.678C277.019 307.996 276.883 308.268 276.792 308.586C275.566 312.992 273.704 317.125 271.478 321.122C268.798 325.982 266.345 330.933 263.847 335.838C261.985 339.517 260.395 343.378 257.625 346.512C254.082 350.554 252.174 355.414 250.357 360.365C249.177 363.545 248.041 366.724 246.588 369.767C244.589 373.991 242.409 378.125 240.229 382.258C239.048 384.529 238.003 386.891 236.55 388.935C234.142 392.341 231.463 395.521 228.964 398.882C228.283 399.836 227.874 401.016 227.329 402.152C228.374 402.379 229.055 402.515 229.873 402.697C229.691 408.193 229.51 413.643 229.373 419.23C228.192 418.776 227.693 418.867 227.602 419.957C227.375 422.546 227.011 425.135 226.784 427.769C226.557 430.403 226.33 432.992 226.239 435.627C226.194 436.399 226.693 437.171 226.875 437.943C226.966 438.397 227.148 439.033 226.921 439.306C225.876 440.759 224.922 442.349 223.151 443.03H216.973C216.428 442.44 215.838 441.849 215.338 441.213C214.521 440.214 213.794 438.988 213.522 437.898C212.341 433.31 211.932 428.677 211.705 424.045C211.614 422.409 213.022 421.092 211.659 420.093C209.842 418.73 208.207 416.959 206.254 415.914C204.71 415.097 203.62 414.143 203.302 412.599C202.666 409.964 202.439 407.194 204.029 404.786C205.073 403.197 205.482 401.607 205.21 399.79C204.619 395.748 203.665 391.751 203.302 387.708C202.893 382.803 202.621 377.807 202.848 372.856C203.029 368.768 204.165 364.726 204.619 360.638C205.3 355.006 205.8 349.373 206.3 343.741C206.572 340.88 206.708 338.018 206.845 335.157C206.89 334.249 206.981 333.158 206.572 332.477C205.346 330.297 204.029 328.117 202.484 326.118C200.35 323.302 199.305 320.032 198.351 316.716C197.216 312.81 196.171 308.859 194.945 304.952C194.218 302.636 193.355 300.365 192.31 298.185C191.22 295.868 189.948 293.643 188.631 291.417C186.905 288.556 185.043 285.74 183.226 282.923C182.636 282.015 179.774 281.47 178.911 282.106C177.231 283.378 175.278 283.605 173.37 283.287C171.916 283.06 170.781 284.377 169.555 285.013C169.282 285.149 168.964 284.649 168.646 284.74C166.239 285.649 163.695 285.83 161.424 287.011C158.699 288.419 156.019 289.555 152.885 289.282C151.069 289.101 149.706 288.238 149.115 286.466C148.798 285.512 148.434 284.604 148.162 283.877C145.482 285.422 142.847 286.92 140.258 288.419C138.532 289.419 136.579 290.191 135.262 291.599C131.901 295.096 128.858 298.866 125.679 302.545C124.906 302.182 124.089 302.591 123.635 303.363C123.044 304.316 122.454 305.361 122.227 306.451C121.863 307.996 121.772 309.631 121.636 311.22C121.545 312.265 120.682 312.538 120.001 312.765C119.592 312.901 118.911 312.447 118.457 312.083C118.002 311.72 117.775 311.039 117.321 310.721C114.414 308.722 112.052 306.179 110.417 303.136C109.146 300.728 108.283 298.048 107.283 295.505C105.875 292.008 105.33 288.329 105.33 284.559C105.33 283.741 105.103 282.923 104.876 282.151C104.195 279.381 103.15 276.655 102.878 273.839C102.332 268.253 103.968 262.848 105.239 257.488C106.42 252.492 108.737 247.995 111.962 243.998C114.323 241.137 116.685 238.184 119.456 235.777C122.999 232.689 126.996 230.1 130.811 227.329C137.306 222.651 143.847 218.018 150.387 213.385C154.339 210.569 158.336 207.753 162.242 204.846C163.968 203.574 165.603 202.211 167.147 200.758C168.555 199.486 169.827 198.078 171.19 196.761C173.642 194.308 176.095 191.81 178.593 189.358C179.865 188.086 181.364 186.996 182.181 185.497C182.545 184.815 181.591 183.362 181.273 182.272C183.135 182.136 183.317 181.772 182.227 180.183C181.909 179.728 181.5 179.32 181.228 178.865C181.001 178.502 180.773 178.093 180.728 177.684C180.592 176.458 180.592 175.232 180.501 173.915C178.639 175.822 177.185 177.73 175.323 179.093C172.779 181 169.963 182.544 167.193 184.18C161.742 187.45 165.739 187.359 159.835 189.675C158.881 190.039 148.207 193.127 147.526 191.946C147.435 191.765 146.935 191.719 146.617 191.674C144.392 191.492 142.166 191.265 140.122 190.22C139.532 189.903 138.896 189.675 138.26 189.403C135.989 188.404 133.4 187.813 131.492 186.314C128.949 184.361 126.905 181.772 124.77 179.365C123.135 177.548 121.591 175.55 120.092 173.642C119.638 173.052 118.956 172.37 118.911 171.689C118.775 169.463 118.593 167.147 119.002 164.967C119.774 160.47 120.955 156.064 121.909 151.568C122.136 150.478 122.681 149.297 122.408 148.343C121.682 145.845 120.501 142.847 120.455 140.258C120.455 138.941 121.136 138.487 122.363 137.76C122.908 137.442 123.453 136.761 123.589 136.17C124.134 133.127 124.452 130.039 125.043 127.041C125.406 125.088 125.361 123.589 123.135 122.908C123.044 122.908 122.999 122.771 122.953 122.726C119.956 120.319 118.729 117.003 118.184 113.415C117.412 113.823 116.504 114.232 115.641 114.686C113.778 115.595 113.37 115.368 113.188 113.415C112.325 113.142 111.371 113.097 110.69 112.597C109.6 111.825 108.828 110.326 107.102 111.234C105.966 110.281 104.558 109.463 103.786 108.282C103.059 107.147 102.968 105.602 102.56 104.24C102.56 103.468 102.56 102.741 102.56 101.969C103.922 101.969 104.331 101.015 104.467 99.9248C104.785 97.4721 105.557 95.3373 107.238 93.4297C108.146 92.385 108.873 91.0678 109.282 89.7506C109.963 87.2525 111.734 85.8445 113.96 85.1178C115.595 84.5727 117.412 84.391 119.183 84.2548C120.455 84.1639 121.364 83.9368 121.818 82.5742C122.09 81.7566 122.499 80.9845 123.044 80.3032C123.953 79.2131 124.861 78.123 125.906 77.1692C126.178 76.8967 126.905 75.9428 127.314 76.0337C128.813 76.3516 130.221 77.7142 131.492 78.0322C132.083 77.5326 132.673 76.9421 133.309 76.5787C135.171 75.6703 137.079 74.8073 138.987 73.9898C139.305 73.8535 140.486 72.6272 140.758 72.8997C141.53 73.581 142.529 74.989 143.302 75.7157C143.983 76.397 143.62 78.2593 144.437 78.441C145.436 78.6681 145.663 79.2585 145.981 79.9398C146.345 80.7574 146.617 81.6204 147.072 82.438C147.571 83.3009 148.298 83.846 149.388 83.3464C149.978 83.0738 150.569 82.6651 151.205 82.438C152.204 82.0746 153.203 81.575 154.021 82.8922C154.657 83.9368 154.339 84.709 153.612 85.4811C153.067 86.117 152.386 86.6621 151.932 87.3434C149.433 88.1155 150.751 89.6598 149.933 90.6136C148.752 92.0217 147.299 93.248 145.981 94.5652C144.982 94.5652 143.438 93.793 142.847 94.6106C142.075 95.7007 142.075 95.5644 142.075 98.1988C142.075 98.8801 142.03 99.6069 142.075 100.288C142.212 102.014 143.12 103.74 144.619 104.785C145.845 105.602 143.438 106.465 142.802 107.419C141.076 109.872 140.44 112.733 140.122 115.64C139.85 118.002 139.668 120.364 139.577 122.726C139.441 125.633 139.305 128.585 139.305 131.537C139.305 132.355 139.668 133.173 139.895 134.035C141.757 133.173 142.075 133.173 142.847 134.989C143.756 137.079 144.71 139.168 145.118 141.394C145.709 144.528 147.48 146.753 149.524 148.888C151.568 146.481 153.521 144.073 155.611 141.757C159.29 137.669 163.105 133.718 166.784 129.63C170.236 125.814 173.733 121.999 177.867 118.956C180.183 117.23 182.727 115.867 185.134 114.278C186.224 113.596 187.178 114.051 188.041 114.686C188.54 115.05 188.949 115.64 189.403 116.14C197.17 109.281 203.983 103.831 212.068 98.3351C210.388 96.9271 210.478 97.1087 209.252 95.7461C206.981 93.2026 204.619 90.0686 203.347 86.9346C201.303 81.9383 201.031 76.8512 201.394 71.4008C201.667 67.4946 201.803 63.6339 201.167 59.7278C200.94 58.456 201.258 56.9117 201.803 55.6854C202.893 53.3235 204.937 51.7338 207.254 50.6437C213.34 47.7822 219.744 45.8746 226.285 44.5119C227.239 44.3303 228.192 44.194 229.146 44.0577C230.463 44.0577 231.781 44.0577 233.098 44.0577C235.232 44.5119 237.367 45.2387 239.547 45.4204C242.772 45.6475 245.497 46.9192 247.905 48.8723C249.585 50.2349 251.175 51.7338 252.765 53.2327C254.218 54.6407 255.808 56.0033 256.943 57.6384C258.987 60.6362 260.077 64.0881 260.622 67.6763C260.895 69.4023 260.85 71.1737 260.713 72.8997C260.532 75.2161 259.214 77.0783 257.988 79.0314C256.671 81.0753 255.081 82.3925 252.674 83.0284C250.494 83.6189 249.177 85.3903 248.268 87.3888C247.223 89.7506 246.451 92.2033 245.407 94.5652C244.907 95.7461 244.135 96.8362 243.635 97.6538C244.089 99.1527 244.453 100.424 244.816 101.651C249.313 103.876 253.9 106.147 258.488 108.373C259.669 108.918 260.85 109.463 262.076 109.872C263.302 110.281 264.619 110.281 265.8 110.78C269.479 112.279 273.158 113.278 276.747 115.05C278.155 115.731 279.926 115.731 281.062 116.776C283.651 119.183 285.286 123.77 288.102 125.769C292.462 128.858 295.687 132.764 298.003 137.397C300.093 141.575 301.728 146.026 303.545 150.387C304.226 151.977 304.589 153.703 305.452 155.201C306.724 157.472 308.314 159.562 309.631 161.787C310.04 162.423 310.857 163.286 309.722 164.149C309.631 164.195 309.767 164.603 309.904 164.785C311.221 166.874 312.402 166.239 314.491 166.556C316.081 166.784 318.397 169.1 319.669 169.69C321.395 170.508 322.894 171.916 324.665 172.416C330.479 174.187 334.521 176.867 339.291 179.955C340.789 181.954 341.562 186.36 343.242 188.177C344.741 189.812 346.649 191.083 348.193 192.673C350.101 194.672 352.372 196.08 354.779 197.397C357.368 198.85 359.911 200.349 362.455 201.894C363.545 202.575 365.044 202.757 366.179 202.938C368.36 203.302 369.677 205.209 371.312 206.617C372.811 207.889 374.173 209.297 375.536 210.705C375.945 211.114 376.081 211.75 376.49 212.159C378.67 214.384 380.85 216.519 383.03 218.744C383.303 219.017 383.53 219.29 383.757 219.562C384.257 220.198 384.711 220.925 385.256 221.561C385.574 221.969 386.437 222.378 386.391 222.605C386.074 223.65 387.482 223.741 387.981 224.15ZM344.968 208.025C345.059 207.98 345.195 207.934 345.286 207.889C345.15 207.617 345.014 207.344 344.877 207.071C344.786 207.117 344.696 207.162 344.605 207.208C344.741 207.48 344.877 207.753 344.968 208.025Z" fill="white"/>
<path d="M390.207 224.967C389.298 225.739 388.39 226.511 386.937 226.557C387.391 225.966 387.845 225.421 387.572 224.649C387.3 223.922 386.755 223.65 386.164 223.241C385.392 222.741 384.665 222.151 384.03 221.47C380.396 217.836 376.717 214.202 373.265 210.387C372.039 209.025 370.676 207.707 369.768 206.072C369.268 205.209 368.405 204.891 367.587 204.483C362.955 202.348 358.276 200.213 353.643 198.078C353.189 197.851 352.871 197.624 352.326 198.124C349.692 200.758 347.33 203.62 345.422 206.844C345.286 207.071 345.15 207.299 345.331 207.753C346.739 206.799 347.602 208.025 348.238 208.752C350.827 211.841 353.689 214.793 355.733 218.336C355.914 218.699 356.505 218.835 356.914 219.017C359.366 220.198 361.819 220.879 364.635 220.561C367.224 220.243 369.949 220.243 372.493 221.152C372.992 221.333 373.129 221.106 373.31 220.743C373.492 220.38 373.537 220.198 373.174 219.835C370.585 217.246 367.542 215.701 363.954 215.156C363.318 215.065 362.682 214.975 362.046 214.838C361.728 214.793 361.229 215.02 361.229 214.384C361.229 213.93 361.365 213.657 361.774 213.476C362.591 213.067 363.454 213.158 364.363 213.112C368.768 213.022 372.129 215.429 375.445 217.927C377.852 219.744 380.441 221.288 383.121 222.651C384.12 223.15 384.938 223.922 385.983 224.331C386.346 224.467 386.664 224.785 386.528 225.194C386.391 225.648 385.846 225.512 385.574 225.467C384.484 225.194 383.394 224.785 382.258 224.467C381.986 224.922 382.167 225.33 382.304 225.739C382.44 226.103 382.531 226.557 382.258 226.784C381.895 227.056 381.441 226.693 381.123 226.511C380.805 226.284 380.578 225.921 380.26 225.648C380.078 225.921 379.806 226.193 380.033 226.602C380.26 227.011 380.123 227.374 379.669 227.647C379.079 228.01 378.806 227.647 378.488 227.329C377.171 225.966 375.809 224.649 374.491 223.287C373.492 224.831 372.493 226.239 371.539 227.692C370.631 229.055 369.404 229.827 367.769 229.736C366.906 229.691 366.316 229.555 365.998 228.374C365.634 226.92 365.861 225.694 366.043 224.377C366.089 224.013 366.316 223.514 365.771 223.287C365.362 223.105 364.953 223.287 364.635 223.65C363.454 225.149 361.819 225.648 360.093 226.103C357.504 226.784 355.914 225.467 356.55 222.923C356.823 221.878 356.55 221.515 355.642 221.061C354.279 220.425 353.189 219.698 352.917 217.791C352.735 216.519 351.327 215.383 350.419 214.248C349.737 213.339 348.965 212.431 348.238 211.523C347.83 211.841 347.375 212.113 347.057 212.476C344.559 215.111 341.834 214.702 338.973 213.158C337.519 212.386 336.02 211.613 334.612 210.705C333.931 210.296 333.522 210.296 332.841 210.66C330.57 211.931 328.253 213.067 326.028 214.339C325.437 214.657 325.119 214.293 324.756 214.112C321.713 212.84 319.26 210.751 316.807 208.616C312.674 205.073 308.132 202.211 302.954 200.349C298.321 198.669 294.551 195.762 292.099 191.447C290.963 189.494 289.51 188.131 287.375 187.541C287.057 187.45 286.694 186.996 286.376 187.359C286.058 187.722 286.421 188.04 286.557 188.404C288.193 193.218 290.736 197.579 293.416 201.848C297.05 207.662 301.319 212.931 305.861 218.018C311.448 224.286 316.853 230.735 322.258 237.185C326.982 242.772 331.66 248.404 334.703 255.172C336.792 259.759 338.382 264.528 339.926 269.297C340.244 270.251 340.926 271.023 341.107 272.068C341.743 275.974 340.699 279.653 339.2 283.105C337.156 287.829 334.748 292.371 331.66 296.504C331.342 296.913 331.115 297.64 330.434 297.367C329.843 297.14 330.161 296.55 330.161 296.141C330.161 294.051 329.253 292.189 328.753 290.236C328.571 289.509 328.163 289.873 327.754 290.191C324.302 293.052 320.668 295.641 316.671 297.731C311.947 300.229 307.042 302.273 301.955 303.999C298.685 305.089 295.369 306.088 292.008 306.769C288.056 307.541 284.059 307.587 280.153 306.542C279.154 306.27 278.791 306.315 278.427 307.45C275.838 315.762 273.204 324.029 269.116 331.796C265.891 337.928 262.348 343.832 259.169 350.009C258.533 351.236 258.124 352.462 257.943 353.779C257.352 358.775 255.49 363.318 252.901 367.587C250.221 372.038 247.678 376.58 244.407 380.623C241.818 383.802 239.184 386.891 236.55 390.07C234.869 392.114 233.143 394.158 231.19 396.52C232.689 382.712 235.55 369.449 235.323 355.869C235.187 357.64 235.051 359.411 234.915 361.183C234.642 364.907 234.188 368.632 233.552 372.356C232.78 377.08 232.053 381.849 231.235 386.573C230.6 390.206 230.145 393.84 230.145 397.519C230.145 399.109 230.1 400.789 230.509 402.243C231.235 404.786 231.054 407.33 230.872 409.783C230.69 413.189 230.736 416.596 230.69 420.002C230.69 420.683 230.418 421.001 229.827 421.228C228.51 421.774 227.738 422.591 227.829 424.226C227.965 427.587 227.738 430.948 227.329 434.264C227.284 434.627 227.238 435.082 227.42 435.354C230.145 440.214 230.69 445.528 230.009 450.843C229.555 454.158 230.6 456.974 231.099 460.017C232.326 467.285 230.418 473.507 225.785 479.23C223.605 481.956 221.288 481.41 218.745 480.911C216.701 480.548 215.611 478.822 214.384 477.413C212.704 475.551 211.023 473.598 209.797 471.327C207.889 467.875 207.435 464.196 207.799 460.29C208.071 457.61 209.297 455.067 209.025 452.341C208.707 448.662 208.253 445.029 208.116 441.35C208.026 438.079 207.935 434.855 210.206 432.129C210.705 431.539 210.524 430.721 210.388 430.085C210.115 428.587 210.16 427.133 210.16 425.634C210.16 425.044 210.07 424.68 209.388 424.362C208.162 423.727 207.98 422.319 207.39 421.001C206.754 422.001 206.027 422.5 204.71 422.319C203.347 422.137 202.893 421.183 202.212 420.366C198.987 416.686 200.123 409.601 202.439 406.558C203.12 409.101 203.574 411.645 205.664 413.643C205.028 410.646 204.437 407.739 203.802 404.832C202.848 400.335 201.122 396.066 200.44 391.524C199.85 387.617 199.169 383.711 198.805 379.714C198.578 377.489 198.624 375.263 198.578 373.037C198.487 367.133 199.623 361.41 201.848 355.959C202.666 353.961 202.575 352.326 201.758 350.509C200.622 347.875 199.895 345.104 199.441 342.288C199.26 341.152 199.396 340.062 200.395 339.245C202.439 337.61 204.437 335.974 206.345 334.203C208.48 332.25 210.478 330.206 212.522 328.162C213.022 327.617 213.431 327.027 214.067 326.572C214.294 326.391 214.385 325.937 214.43 325.573C214.43 325.437 214.294 325.119 213.976 325.164C213.567 325.21 213.567 325.619 213.385 325.8C211.296 328.026 209.297 330.388 206.663 332.068C204.619 333.385 204.801 333.385 203.257 331.478C197.579 324.756 193.037 317.216 188.495 309.631C184.634 303.181 181.636 296.277 178.82 289.282C178.23 287.783 177.503 286.33 176.913 284.831C176.64 284.15 176.277 284.241 175.732 284.377C171.916 285.422 168.283 286.966 164.558 288.238C160.788 289.509 157.064 290.872 152.976 290.736C150.523 290.645 148.888 289.6 147.934 287.329C147.072 285.331 146.89 285.24 144.937 286.285C141.894 287.92 139.168 289.964 136.579 292.28C133.127 295.414 129.948 298.684 127.268 302.454C126.269 303.862 125.27 304.089 124.134 303.408C123.589 305.77 123.135 308.086 122.817 310.494C122.59 312.038 121.954 313.582 121.954 315.217C121.954 315.717 121.636 315.762 121.182 315.49C116.14 312.083 111.962 307.814 108.918 302.545C105.466 296.595 103.559 290.191 102.696 283.423C102.332 280.471 101.288 277.609 100.879 274.612C100.743 273.521 101.106 272.341 100.516 271.341C100.516 269.661 100.516 267.98 100.516 266.3C100.606 266.072 100.788 265.891 100.788 265.664C100.743 262.711 101.469 259.895 102.105 257.034C103.65 249.767 107.374 243.726 112.643 238.684C116.958 234.551 121.909 231.326 126.905 228.147C136.261 222.196 145.663 216.337 154.475 209.66C159.153 206.118 163.65 202.393 167.874 198.305C170.418 195.853 172.961 193.355 175.232 190.629C177.594 187.813 179.82 184.906 181.591 181.681C181.818 181.227 181.954 180.864 181.727 180.455C180.955 179.183 180.546 177.775 179.956 176.367C179.138 177.276 178.366 178.275 177.458 179.047C173.506 182.454 169.327 185.633 164.604 187.904C163.196 188.585 162.378 189.948 160.788 190.357C159.153 190.766 157.518 191.311 155.883 191.81C154.793 192.128 153.43 191.719 152.794 193.173C152.749 193.309 152.34 193.309 152.159 193.309C150.342 193.218 148.525 193.309 146.708 193.127C138.85 192.219 132.31 188.858 126.996 183.09C123.498 179.365 120.41 175.323 117.73 170.962C116.731 169.327 116.231 167.601 116.731 165.557C117.73 161.424 119.501 157.563 120.819 153.566C121.046 152.84 121.454 152.158 121.227 151.295C120.455 148.343 120.046 145.3 119.093 142.438C118.23 139.895 118.956 138.578 121.863 137.033C122.499 136.715 122.681 136.488 122.59 135.761C122.317 132.355 122.181 128.994 122.635 125.587C122.772 124.497 122.908 123.634 121.772 122.726C120.501 121.727 118.911 120.773 119.002 118.774C117.412 118.138 117.457 116.549 116.912 115.186C116.322 116.231 115.232 115.777 114.414 116.049C113.006 116.549 112.87 115.322 112.234 114.686C112.143 114.596 112.007 114.505 111.962 114.368C111.598 113.596 111.189 113.551 110.372 113.914C109.1 114.505 107.919 114.55 106.784 113.233C105.512 111.78 104.24 110.326 103.105 108.736C101.606 106.602 101.606 104.376 102.105 102.014C102.196 101.651 102.378 101.333 102.242 100.833C101.742 99.3798 101.56 98.0626 103.105 96.7908C104.558 95.5645 105.784 93.9293 107.192 92.5667C107.556 92.2033 107.828 91.84 107.828 91.2495C107.783 89.8415 108.373 88.6151 109.055 87.4796C109.554 86.6166 110.281 85.8899 111.371 85.9353C112.325 85.9808 112.961 85.7082 113.506 84.8452C113.869 84.2094 114.687 83.8914 115.459 84.2094C117.003 84.7998 118.093 84.2094 119.229 83.2101C120.001 82.5288 120.909 81.8929 121.863 81.4387C122.999 80.8937 123.317 80.1215 123.407 78.8498C123.635 75.5795 125.769 74.7165 128.54 76.6696C128.994 76.9875 129.176 76.715 129.494 76.5333C132.264 74.9436 135.035 73.4447 138.078 72.3546C138.76 72.0821 139.713 72.4909 140.077 72.0367C141.258 70.5378 141.803 71.6279 142.484 72.4455C145.028 75.7158 146.754 79.4402 148.207 83.3009C149.433 82.12 151.023 81.575 152.477 80.9845C153.294 80.6212 154.52 80.4849 155.065 81.6204C155.52 82.5288 156.065 82.3471 156.837 82.2109C159.971 81.6204 162.151 81.8929 163.922 84.8452C164.195 85.2994 164.331 85.8445 164.695 86.117C166.829 87.7522 167.374 89.9323 167.147 92.4759C167.102 92.8847 167.011 93.2934 167.556 93.5205C169.509 94.2927 170.145 96.1095 170.645 97.9263C170.781 98.4259 170.736 98.971 171.508 98.8801C172.87 98.7439 173.915 99.4706 174.733 100.47C175.187 101.015 175.55 101.242 176.231 100.879C177.549 100.197 178.73 100.652 179.82 101.56C180.047 101.742 180.365 102.241 180.546 102.105C181.455 101.242 182.908 101.515 183.771 100.652C184.77 99.6069 185.906 98.8801 187.223 98.4259C187.496 98.3351 187.95 98.4714 187.95 97.9717C187.904 95.9732 189.358 95.2011 190.811 94.4289C191.311 94.1564 191.493 93.9747 191.266 93.2934C190.539 91.2949 190.993 90.2503 192.764 89.251C194.082 88.5243 195.49 88.2518 196.989 88.0701C195.898 87.8884 194.763 87.7521 193.718 88.2064C192.583 88.706 191.947 88.6606 192.401 87.1163C192.038 87.1163 191.765 87.0708 191.538 87.1163C188.268 87.6613 185.179 86.9346 182.454 85.1178C180.455 83.8006 179.002 82.0746 178.73 79.5765C178.684 79.1223 178.502 78.6227 179.184 78.3047C179.82 77.9868 180.047 78.4864 180.365 78.7135C181.364 79.4402 182.227 80.3486 183.408 80.9391C184.407 81.4387 184.77 81.1662 184.634 80.1215C184.316 78.0776 185.179 76.4425 186.723 75.2615C187.768 74.444 187.859 74.0806 186.587 73.6264C186.133 73.4902 186.042 72.9905 185.861 72.6726C185.361 71.855 185.588 70.4016 185.043 70.129C184.271 69.6748 183.09 69.8111 182.136 69.4477C181.954 69.4023 181.773 69.3569 181.591 69.3115C179.683 68.5848 178.684 67.0405 178.548 65.1782C178.412 63.5885 179.411 62.4076 180.773 61.59C181.909 60.9087 183.044 60.182 184.225 59.4098C182.227 59.0011 180.455 58.2743 178.82 57.1388C175.505 54.8678 173.96 51.2796 174.869 47.5551C175.278 45.8291 176.231 44.4211 177.503 43.2402C177.73 43.0131 178.412 42.8768 177.912 42.2864C176.413 40.4241 177.049 38.5619 178.048 36.8813C179.729 34.0198 182.545 32.6118 185.543 31.5217C186.088 31.34 186.406 31.2492 186.633 30.6587C187.95 27.3431 190.584 25.3446 193.854 24.1636C194.717 23.8457 195.535 23.4823 196.398 23.0735C197.806 22.4377 198.76 21.8472 198.942 19.985C199.396 15.4429 207.889 10.9463 212.613 13.6715C212.84 13.8078 213.204 14.262 213.658 13.6715C215.338 11.4005 217.7 10.0379 220.38 9.26575H223.741C225.013 9.85621 226.421 10.1742 227.511 11.1734C229.509 13.0356 230.145 15.3521 229.964 17.9865C229.918 18.6678 229.918 19.1674 230.918 19.1674C231.826 19.1674 232.825 19.4853 233.597 20.1212C233.734 20.2121 233.87 20.3029 234.006 20.3937C234.506 19.4853 235.641 19.0765 236.095 18.259C237.14 16.2605 238.457 15.8517 240.229 17.2597C240.547 17.4868 240.774 17.7594 241.183 17.7594C242.363 17.7139 243.544 18.1227 244.407 18.7586C245.725 19.7124 246.86 19.5308 248.268 19.122C251.175 18.259 254.082 19.3945 253.764 22.9827C253.673 24.0728 253.491 24.8904 255.036 25.4808C257.034 26.253 257.534 28.4331 257.67 30.4771C257.716 31.2946 257.716 31.9305 258.715 32.3393C259.714 32.7481 260.577 33.6111 260.895 34.7466C261.167 35.6096 261.395 35.4279 262.03 35.0191C264.483 33.4748 266.89 35.5187 266.981 37.7443C266.981 38.1985 266.845 38.6527 267.208 39.2886C268.48 37.8352 269.616 36.4725 269.797 34.5195C269.979 32.521 269.116 31.0221 267.799 29.6141C269.661 30.2045 270.797 31.5217 271.342 33.2477C272.386 36.5634 271.569 39.5157 269.298 42.0593C269.57 42.3772 269.888 42.5135 270.115 42.8314C271.478 44.4665 271.342 46.465 271.069 48.3273C270.842 49.7807 271.569 50.4166 272.523 50.9616C276.474 53.2781 276.656 59.0011 273.84 61.8171C273.249 62.453 272.659 63.0889 271.978 63.7702C272.886 64.179 273.749 64.4969 274.566 64.9057C275.793 65.4962 276.747 66.45 277.337 67.7218C278.836 70.9012 278.291 73.8535 276.383 76.6242C275.702 77.6234 275.157 78.3955 275.838 79.6673C276.202 80.3486 275.975 81.257 275.52 82.0292C274.703 83.4372 273.34 84.1185 271.887 84.5727C271.069 84.8452 270.388 85.1178 270.479 86.2533C270.524 86.98 270.206 87.7976 269.934 88.5243C268.662 91.7946 263.62 94.1564 259.532 92.4759C259.033 92.2488 258.669 92.1125 258.397 92.8847C257.716 94.656 256.489 96.0641 255.217 97.4267C253.31 99.5614 250.766 100.606 247.905 100.924C247.996 101.06 247.996 101.106 248.041 101.151C253.128 103.422 258.124 105.875 262.666 109.191C262.803 109.281 263.121 109.418 263.121 109.372C263.666 108.328 264.438 108.918 265.164 109.054C270.433 109.872 275.248 111.87 279.926 114.232C282.061 115.322 284.014 116.776 284.15 119.501C284.196 120.864 284.922 121.454 286.194 121.817C287.148 122.09 288.011 122.726 288.874 123.271C294.097 126.45 297.504 131.129 300.002 136.534C304.135 145.481 308.087 154.52 312.129 163.513C312.402 164.104 312.72 164.649 313.401 164.876C315.717 165.739 317.761 167.102 319.896 168.328C326.164 171.962 332.341 175.686 338.973 178.638C339.699 178.956 340.426 179.32 340.789 180.046C342.061 182.408 343.151 184.815 343.605 187.495C343.651 187.904 343.787 188.222 344.151 188.404C346.649 189.63 348.829 191.401 350.964 193.127C352.099 194.036 354.143 194.354 354.098 196.489C354.098 196.625 354.597 196.852 354.915 196.943C355.642 197.215 356.414 197.397 357.141 197.669C361.138 199.305 365.135 200.985 369.132 202.666C370.313 203.165 371.63 203.483 372.447 204.573C375.945 209.07 379.442 213.567 382.939 218.109C384.529 220.153 386.21 222.015 388.753 222.832C389.389 223.059 389.843 223.514 390.298 223.968L390.207 224.967ZM164.558 88.8877C164.013 90.2503 163.15 91.2949 161.742 91.6129C160.561 91.8854 159.29 92.1125 158.336 91.0678C157.518 90.2048 157.473 89.0693 157.927 88.0701C158.563 86.6166 159.88 85.9808 161.288 85.4357C160.334 83.8006 158.835 83.4826 157.109 83.5735C156.337 83.6189 156.019 83.846 156.065 84.6181C156.11 85.1632 156.246 85.7537 155.565 86.117C154.021 86.8892 152.749 88.2064 150.887 88.388C150.523 88.4335 150.342 88.5697 150.523 88.9331C151.704 91.2949 149.615 92.5667 148.661 94.0656C147.798 95.4736 146.163 96.4274 144.573 97.0633C144.255 97.1996 143.892 97.245 143.71 97.6538C142.802 99.3343 143.347 102.514 144.8 103.649C146.254 104.785 146.754 106.238 146.299 108.01C145.573 110.826 143.983 113.233 142.802 115.822C142.212 117.139 141.303 118.411 141.258 119.774C141.076 123.089 141.258 126.405 140.94 129.721C140.894 130.039 140.803 130.447 141.439 130.447C143.302 130.447 143.756 131.946 144.301 133.263C145.618 136.261 146.163 139.441 146.799 142.575C146.89 143.029 146.981 143.574 146.299 143.71C145.709 143.801 145.527 143.392 145.346 142.892C144.255 139.895 142.938 136.942 142.121 133.718C139.123 137.351 135.353 139.577 131.084 141.076C128.131 142.12 125.179 141.893 122.272 141.076C121.909 140.985 121.5 140.44 121.136 140.758C120.682 141.167 121.091 141.712 121.227 142.166C121.818 144.301 122.408 146.435 122.635 148.661C122.726 149.388 124.361 151.295 124.997 151.341C128.404 151.432 131.765 151.25 135.126 150.614C136.807 150.296 138.442 149.751 140.077 149.297C140.713 149.115 141.258 149.342 141.485 149.887C141.803 150.569 141.031 150.614 140.713 150.75C135.944 153.112 130.947 154.384 125.542 153.657C125.088 153.612 124.407 153.248 124.316 154.248C123.907 158.835 122.726 163.241 121.182 167.51C120.864 168.373 121 169.009 121.454 169.69C124.452 174.278 127.768 178.593 131.81 182.363C134.672 184.997 137.715 187.268 141.303 188.812C143.847 189.903 146.39 191.129 149.252 190.993C152.204 190.811 155.111 190.266 158.109 189.903C156.837 189.04 156.837 188.722 158.517 187.722C162.333 185.451 166.193 183.271 170.009 181C172.87 179.32 175.868 177.866 178.275 175.459C178.957 174.778 179.184 174.142 178.866 173.097C177.367 167.965 176.322 162.696 176.277 157.291C176.277 155.837 175.686 155.519 174.46 155.565C173.506 155.61 172.507 155.656 171.553 155.292C171.144 155.156 170.917 154.883 170.963 154.475C171.008 153.975 171.462 154.157 171.735 154.111C172.916 154.02 174.051 154.202 175.141 154.611C176.095 154.974 176.322 154.611 176.277 153.703C176.231 151.795 176.186 149.842 177.004 148.07C177.231 147.571 177.321 146.572 177.912 146.708C178.457 146.799 178.412 147.752 178.502 148.343C178.911 152.067 179.32 155.792 179.638 159.562C179.956 163.786 180.546 167.919 181.364 172.052C181.773 174.096 182.136 176.186 183.044 178.23C183.953 177.185 184.135 175.959 184.589 174.823C185.588 172.279 186.451 169.554 186.224 166.874C185.951 163.468 185.815 160.061 185.361 156.655C184.861 152.34 184.089 148.07 183.362 143.801C182.954 141.439 183.544 139.168 185.088 137.26C188.132 133.536 192.265 131.265 196.398 128.903C194.899 127.222 193.219 125.587 191.311 124.27C189.403 122.908 187.405 121.59 185.452 120.273C183.635 119.047 183.499 118.002 184.998 116.367C185.225 116.094 185.633 115.958 185.633 115.368C181.273 118.184 177.185 121.091 173.324 124.724C174.733 125.179 175.913 125.542 177.049 125.905C178.184 126.269 179.411 127.041 180.455 126.814C181.5 126.632 181.773 125.042 182.454 124.088C181.909 125.542 181.5 126.995 180.592 128.313C178.23 131.674 175.641 134.808 172.734 137.669C172.461 137.942 172.144 138.123 172.189 138.578C172.28 139.531 171.644 139.577 170.963 139.577C167.329 139.622 163.832 138.895 160.334 138.032C159.835 137.896 159.608 137.851 159.244 138.214C157.427 139.94 155.838 141.939 154.021 143.71C152.613 145.118 152.567 146.39 153.703 147.934C153.93 148.207 154.021 148.57 154.157 148.933C155.928 153.521 157.654 158.108 159.426 162.696C160.516 165.466 161.561 168.282 162.696 171.053C163.196 172.234 162.242 172.688 161.742 173.233C161.334 173.642 160.698 173.097 160.38 172.597C155.701 164.876 151.023 157.109 148.207 148.388C147.98 147.662 147.844 146.844 146.935 146.526C146.481 146.344 146.526 145.936 146.663 145.436C147.208 143.438 149.433 142.711 151.568 143.937C153.158 140.44 155.611 137.578 158.199 134.853C162.787 129.948 167.374 125.042 172.416 120.591C176.504 116.957 180.955 113.869 185.951 111.598C187.359 110.962 188.858 110.371 190.448 111.416C190.811 111.689 191.402 111.416 191.856 111.098C194.763 109.145 197.67 107.192 200.668 105.33C203.075 103.831 205.346 102.15 208.071 101.106C208.253 102.196 207.481 102.695 206.89 103.15C204.165 105.375 201.303 107.419 198.442 109.509C194.99 112.052 191.402 114.414 188.041 117.366C190.539 118.593 192.401 120.5 194.172 122.453C195.717 124.179 197.261 125.905 198.26 128.04C198.578 128.767 198.533 129.176 197.897 129.766C195.353 132.082 192.628 134.263 190.221 136.715C188.54 138.441 188.086 140.304 188.631 142.575C189.358 145.709 189.721 148.888 189.54 152.113C189.312 156.201 188.813 160.288 188.813 164.376C188.767 169.282 188.54 174.096 186.996 178.775C184.452 186.36 179.865 192.673 174.596 198.487C170.963 202.484 167.011 206.118 162.832 209.524C156.428 214.838 149.57 219.517 142.62 224.059C135.626 228.646 128.358 232.916 121.682 238.003C118.002 240.819 114.505 243.817 111.734 247.541C108.237 252.219 106.329 257.579 105.012 263.166C104.513 265.21 103.786 267.253 103.922 269.434C104.24 274.657 104.558 279.88 105.739 285.013C107.42 292.098 109.509 298.911 113.915 304.862C116.004 307.632 118.366 310.13 121.046 312.538C121.364 309.721 121.318 307.087 121.772 304.453C122.227 301.727 123.498 299.32 124.316 296.731C127.677 286.33 133.127 277.019 139.35 268.162C145.663 259.169 152.885 250.902 160.243 242.681C164.649 237.776 169.055 232.825 173.279 227.738C175.732 224.785 178.275 221.878 180.319 218.608C182.817 214.566 185.088 210.387 187.405 206.208C190.448 200.758 192.991 195.126 194.536 189.04C195.717 184.498 196.443 179.865 197.534 175.277C198.397 171.689 199.305 168.101 199.714 164.422C200.213 160.061 200.94 155.746 201.213 151.386C201.44 147.435 201.985 143.528 202.257 139.577C202.575 135.807 203.12 132.037 203.847 128.313C204.846 123.362 206.163 118.547 207.662 113.733C209.025 109.418 210.433 105.103 213.113 101.333C212.886 101.197 212.704 101.106 212.522 100.969C211.023 100.106 209.252 99.6069 208.344 98.0626C207.708 96.9725 206.845 96.1549 206.027 95.2919C205.3 94.5198 204.574 93.7476 203.892 92.9301C203.075 91.9308 202.848 89.9323 200.713 90.8407C200.577 90.8862 200.35 90.6136 200.123 90.5228C199.26 90.2503 198.215 90.2503 197.624 90.7045C196.08 91.84 195.172 92.0217 193.355 91.0224C193.537 93.8839 193.264 94.2473 194.808 95.5644C194.445 94.8831 194.172 94.3835 193.945 93.8385C193.854 93.6114 193.718 93.2026 194.082 93.1572C194.945 93.0209 195.762 93.0663 196.489 93.6114C197.306 94.2473 197.715 95.0648 197.488 96.0641C197.306 96.8362 196.988 97.3813 196.035 97.6538C194.4 98.1988 193.627 97.2904 192.81 96.2458C192.583 95.9732 192.492 95.3828 192.174 95.4282C191.402 95.5645 190.857 96.0641 190.63 96.8362C190.448 97.4267 190.312 98.0626 191.129 98.3351C191.901 98.5622 192.356 99.1981 192.81 99.7431C193.718 100.833 193.446 102.741 192.356 103.331C190.948 104.149 189.358 103.74 188.722 102.287C188.359 101.469 188.132 100.606 187.859 99.7431C184.543 100.833 184.044 103.286 186.315 105.648C186.133 104.694 186.042 103.831 185.588 103.059C185.315 102.605 185.361 102.06 185.815 101.832C186.224 101.651 186.451 102.15 186.587 102.468C186.86 103.104 187.178 103.74 187.314 104.421C187.45 105.512 187.178 106.511 185.997 106.874C184.907 107.192 184.316 106.374 183.771 105.602C182.999 104.467 182.772 103.15 182.954 101.742C181.182 102.468 181.137 102.605 181.682 104.194C181.864 104.83 182.045 105.466 182.091 106.102C182.181 107.328 181.137 108.464 179.956 108.373C178.73 108.282 178.412 107.465 178.412 106.329C178.412 105.194 178.593 104.149 179.275 103.195C179.411 103.013 179.638 102.832 179.502 102.605C179.093 102.014 178.548 101.56 177.867 101.378C177.14 101.151 176.277 101.515 176.141 101.969C175.959 102.786 175.232 103.286 175.141 104.013C175.05 104.467 174.415 105.057 174.778 105.284C175.505 105.648 175.368 104.558 175.823 104.331C176.004 104.24 176.004 103.876 176.322 104.058C176.595 104.739 176.368 105.421 176.141 106.102C175.777 107.101 174.869 107.51 173.96 107.51C173.097 107.51 172.689 106.783 172.461 105.966C172.007 104.467 172.689 103.286 173.642 102.378C174.369 101.742 174.142 101.242 173.688 100.788C173.097 100.152 172.234 99.4252 171.417 99.7885C170.372 100.243 168.919 100.243 168.374 101.605C168.147 102.15 168.237 102.832 168.828 103.059C169.645 103.331 169.373 102.423 169.645 102.06C169.782 101.923 169.691 101.605 169.691 101.378C169.691 100.652 170.418 100.742 170.69 100.697C171.281 100.606 171.053 101.197 171.008 101.515C170.826 102.423 170.599 103.331 169.827 103.967C168.828 104.739 167.783 104.694 166.875 103.786C166.012 102.923 166.103 102.014 166.829 101.06C167.374 100.334 168.147 99.9248 168.828 99.3798C169.055 99.1981 169.418 99.1981 169.464 98.7439C169.645 97.5629 168.646 95.0194 167.556 94.4744C166.148 93.7476 164.74 93.8385 163.377 94.7469C162.969 95.0194 162.514 95.3828 162.696 96.0187C162.832 96.4274 163.059 96.7908 163.514 96.9271C164.15 97.0633 164.558 96.7 164.876 96.2003C165.103 95.7916 165.285 95.3828 165.512 94.974C165.648 94.7469 165.921 94.7469 166.148 94.8377C166.375 94.8831 166.33 95.0648 166.284 95.2919C165.966 97.1996 163.559 98.6985 161.697 98.108C160.471 97.6992 160.016 96.4274 160.834 95.3373C161.697 94.2018 162.923 93.6114 164.286 93.248M192.31 202.121C195.263 202.984 198.215 203.801 201.122 204.664C208.707 206.935 216.383 208.479 224.332 208.116C224.649 208.116 224.877 208.025 225.058 207.798C226.921 205.891 229.146 204.8 231.781 204.528C236.005 204.119 240.092 204.392 243.681 207.071C243.908 207.253 244.044 207.571 244.498 207.435C248.359 206.208 252.401 205.8 256.308 204.619C259.578 203.62 262.666 202.166 265.982 201.303C266.573 201.167 266.89 200.803 266.8 200.077C266.663 199.077 266.573 198.033 266.527 197.034C266.345 192.037 266.754 187.086 267.663 182.181C267.799 181.5 267.89 180.818 268.616 180.455C268.98 180.273 269.252 179.955 268.934 179.547C268.616 179.138 268.298 179.592 268.071 179.683C265.392 180.909 262.53 181.636 259.669 182.136C259.305 182.181 258.669 182.726 258.488 182.045C258.351 181.409 259.033 181.136 259.487 180.864C259.623 180.773 259.85 180.818 260.032 180.728C262.485 179.865 264.892 178.911 267.254 177.866C268.162 177.457 268.389 176.912 268.208 176.004C267.345 171.825 266.527 167.601 265.664 163.422C264.438 157.427 262.757 151.568 260.713 145.799C259.442 142.211 258.306 138.578 257.08 134.898C249.358 140.349 240.592 142.12 231.417 142.484C222.242 142.847 213.294 141.848 205.028 136.579C204.165 151.931 202.711 167.056 198.351 181.772C198.987 181.818 199.441 181.818 199.805 181.909C203.438 182.681 207.072 183.317 210.796 183.544C211.114 183.544 211.478 183.544 211.568 183.952C211.659 184.27 211.387 184.452 211.25 184.679C210.933 185.179 210.433 185.224 209.888 185.224C206.391 185.224 202.893 185.451 199.441 184.588C197.988 184.225 197.851 184.815 197.579 185.951C196.489 191.583 194.854 196.897 192.31 202.121ZM213.839 101.56C213.93 102.332 214.021 102.968 213.839 103.604C211.523 110.371 209.888 117.366 207.844 124.225C206.89 127.45 206.89 127.54 209.979 129.13C216.02 132.219 222.56 133.036 229.192 133.354C232.416 133.49 235.596 133.082 238.73 132.537C243.408 131.719 247.905 130.266 251.856 127.631C254.264 126.042 253.946 126.677 252.765 124.088C249.994 118.184 246.315 112.824 242.363 107.601C241.092 105.92 240.002 104.103 239.684 102.105C239.229 99.3798 239.82 96.6545 240.32 93.9293C240.728 91.7491 241.137 89.5235 241.591 87.2525C239.911 87.8884 239.457 89.8869 237.503 90.432C238.684 88.4789 239.638 86.7529 240.728 85.1632C241.955 83.3918 243.181 81.3479 245.952 82.438C246.088 82.4834 246.315 82.438 246.497 82.3925C251.493 80.5303 253.628 75.7158 249.631 71.0829C248.359 69.584 246.043 69.2206 244.907 70.3107C243.317 71.855 241.864 73.581 240.41 75.2615C240.047 75.6703 239.82 76.1245 239.184 76.0337C238.594 75.9428 238.594 75.4432 238.412 74.989C237.776 72.9905 238.366 71.1283 239.048 69.2661C239.275 68.6302 239.911 68.0397 239.775 67.3584C239.457 66.1321 239.911 65.0874 240.32 64.0427C238.366 63.6793 238.23 63.4522 238.139 61.5446C238.094 60.3637 238.73 59.5461 239.229 58.6377C239.411 58.3197 239.911 58.1381 239.684 57.7293C239.502 57.3205 239.002 57.5476 238.639 57.5022C235.096 57.0934 231.463 56.4575 228.874 53.9594C227.193 52.3243 226.103 53.0056 224.695 53.6869C224.604 53.7323 224.559 53.7777 224.468 53.8231C221.243 55.1403 217.927 56.2304 214.339 55.8216C213.067 55.6854 211.886 55.7308 210.978 56.9117C210.569 57.4568 209.752 57.6839 209.116 58.0926C207.163 59.2282 204.937 59.5915 202.757 60.0003C201.985 60.1366 202.03 60.9995 202.121 60.9995C202.984 61.3175 203.347 62.6347 204.755 61.9534C206.391 61.2266 208.026 61.8171 209.025 62.998C208.571 63.3614 208.207 62.6347 207.708 62.998C206.572 63.7248 205.437 64.4061 204.256 65.042C203.711 65.3599 203.574 65.7233 203.529 66.3592C203.393 68.1305 203.257 69.9019 202.939 71.6279C202.121 76.0791 201.621 80.4849 203.211 84.9361C204.437 88.388 205.437 91.84 208.525 94.1564C208.934 94.4744 209.161 94.974 209.525 95.2919C211.205 96.7 212.431 98.7893 214.975 98.8347C217.791 98.8347 220.562 99.3343 223.378 99.1527C223.832 99.1072 224.286 99.1072 224.74 98.971C227.874 98.0171 231.008 97.1542 234.142 96.2912C233.779 98.3805 231.871 99.1072 230.418 99.9702C228.465 101.106 226.103 101.151 223.877 101.605C220.607 102.105 217.291 102.514 213.839 101.56ZM288.42 185.361C288.238 184.861 288.147 184.452 287.92 184.089C287.193 182.908 287.92 182.045 288.738 181.591C289.737 181 290.009 182.136 290.418 182.726C290.827 183.271 291.145 183.907 291.463 184.498C292.871 187.132 294.234 189.766 296.595 191.765C299.184 193.99 301.728 196.034 305.044 197.17C310.176 198.987 314.809 201.712 318.988 205.3C321.122 207.117 323.348 208.843 325.437 210.751C326.573 211.75 327.436 211.477 328.435 210.66C329.843 209.524 331.342 208.57 333.068 207.934C333.658 207.707 334.294 207.798 334.385 208.298C334.612 209.206 335.384 209.252 335.929 209.433C337.428 209.888 338.927 210.433 340.29 211.205C341.425 211.886 341.789 211.613 342.107 210.342C343.288 205.618 345.513 201.394 348.874 197.806C350.146 196.443 350.191 196.443 348.738 195.217C348.375 194.899 347.966 194.581 347.602 194.217C345.559 192.401 343.288 190.811 342.061 188.267C340.926 185.815 339.79 183.317 338.791 180.773C338.473 179.955 337.973 179.501 337.201 179.183C334.476 177.957 331.751 176.821 329.116 175.459C324.892 173.279 320.714 170.917 316.717 168.328C315.717 167.692 314.627 167.147 313.356 166.42C314.037 168.01 314.627 169.282 315.127 170.644C315.399 171.416 316.081 172.507 315.172 173.052C314.627 173.37 313.901 172.279 313.537 171.644C311.902 168.918 310.221 166.193 308.723 163.377C306.906 160.061 305.225 156.655 303.499 153.294C303.181 152.658 303 152.431 302.273 152.976C301.274 153.657 300.093 154.157 298.866 153.793C296.505 153.067 294.461 151.977 293.371 149.478C292.825 148.298 292.371 147.071 292.19 145.845C291.735 142.665 292.508 139.622 294.824 137.397C295.778 136.443 295.551 135.989 295.097 135.171C294.869 134.762 294.597 134.399 294.324 133.99C291.917 130.039 288.828 126.677 284.695 123.861C285.149 126.223 285.013 128.267 285.013 130.356C285.013 133.581 284.65 135.58 283.923 136.397C283.469 136.034 283.56 135.534 283.651 135.08C284.196 132.4 283.605 129.811 283.151 127.177C282.833 125.179 281.834 123.135 281.925 121.272C282.061 118.82 280.88 117.866 279.154 116.957C274.93 114.686 270.479 112.87 266.073 110.871C265.8 110.735 265.482 110.417 265.21 110.78C264.892 111.189 265.392 111.371 265.573 111.507C267.299 113.051 268.98 114.641 270.07 116.73C270.206 117.003 270.433 116.957 270.66 117.003C271.705 117.23 271.978 117.684 271.205 118.547C270.797 119.001 270.479 119.501 270.07 119.955C268.162 122.317 265.755 124.27 263.893 126.814C267.708 128.585 271.16 130.811 274.657 132.855C276.156 133.718 277.337 135.216 279.336 135.126C279.654 135.126 279.79 135.489 279.972 135.898C280.426 137.079 279.744 138.123 279.926 139.259C280.471 143.074 280.471 146.935 281.016 150.75C281.652 155.428 282.061 160.107 282.424 164.831C282.878 170.508 283.56 176.14 284.695 181.727C285.331 184.634 285.286 184.634 288.42 185.361ZM270.524 185.633C269.707 188.858 269.57 192.083 269.616 195.308C269.616 195.489 269.752 195.626 269.843 195.807C274.112 201.894 276.974 208.752 279.79 215.565C282.333 221.788 284.332 228.192 285.922 234.687C286.012 235.05 286.103 235.368 286.194 235.641C286.512 236.368 287.875 254.899 287.875 255.535C287.92 257.761 287.829 260.032 287.648 262.257C287.42 265.437 287.193 268.661 286.694 271.795C285.74 277.518 284.559 283.196 283.333 288.874C282.333 293.416 281.38 297.958 279.881 302.363C279.563 303.317 279.972 303.681 280.835 303.726C284.377 303.771 287.875 303.862 291.372 303.045C298.73 301.273 305.77 298.548 312.629 295.505C317.489 293.37 322.349 291.281 326.845 288.374C327.708 287.829 327.799 287.375 327.527 286.512C322.939 272.431 317.489 258.76 309.268 246.36C306.27 241.818 303.181 237.321 299.729 233.143C294.415 226.648 288.919 220.289 284.014 213.521C281.062 209.433 278.609 204.982 276.338 200.44C274.884 197.579 273.522 194.626 272.659 191.538C272.114 189.448 271.387 187.541 270.524 185.633ZM330.524 294.46C333.34 289.146 336.474 284.377 338.609 279.154C339.563 276.837 340.244 274.339 339.109 271.886C337.337 268.026 335.475 264.256 333.477 260.531C329.843 253.764 325.256 247.677 320.169 241.954C317.716 239.184 315.263 236.368 312.856 233.506C309.767 229.827 306.815 225.966 303.59 222.378C298.912 217.155 294.279 211.931 290.6 205.936C288.011 201.757 285.24 197.624 283.378 192.991C280.426 185.542 279.563 177.639 278.609 169.781C278.155 165.875 277.928 161.924 277.428 158.017C276.747 152.567 276.156 147.117 276.338 141.621C276.383 140.076 276.61 138.532 277.292 137.17C277.791 136.216 277.473 135.943 276.656 135.58C272.068 133.581 267.935 130.765 263.62 128.267C262.394 127.586 262.348 126.814 262.939 125.678C263.984 123.68 265.437 121.999 266.936 120.364C267.481 119.728 268.526 119.183 268.571 118.547C268.616 117.73 267.39 117.457 266.754 116.912C263.211 113.823 259.442 111.053 255.445 108.6C251.902 106.42 248.314 104.376 244.725 102.241C243.59 101.56 242.409 100.879 242.227 99.3343C242.182 99.0618 241.682 98.7893 241.682 98.8801C241.364 99.8794 241.092 100.879 240.91 101.878C240.865 102.105 240.456 102.468 240.91 102.695C240.955 102.695 241.001 102.695 241.046 102.741C242.818 103.468 244.044 104.83 245.316 106.193C250.039 111.234 253.719 117.003 256.398 123.362C260.305 132.491 263.03 142.029 265.846 151.477C268.526 160.47 269.752 169.827 272.068 178.911C272.977 182.544 273.249 186.314 274.884 189.857C277.11 194.717 279.245 199.623 281.334 204.528C281.97 205.981 282.333 207.707 283.423 208.661C284.65 209.751 285.649 210.932 286.648 212.204C291.599 218.381 296.595 224.558 301.546 230.735C308.813 239.865 314.945 249.63 319.578 260.35C322.076 266.118 327.845 283.559 329.253 289.782C329.661 291.19 330.07 292.643 330.524 294.46ZM166.875 241.954C163.695 245.361 160.743 248.586 157.7 251.765C152.34 257.352 147.253 263.166 142.484 269.297C136.579 276.928 131.311 284.922 127.404 293.734C126.36 296.05 125.406 298.457 124.861 301.001C126.859 297.594 129.539 294.778 132.446 292.098C136.034 288.783 139.713 285.467 144.392 283.741C148.252 282.333 150.66 281.97 152.249 286.33C152.567 287.238 153.294 287.602 154.293 287.693C156.746 287.92 158.972 287.284 161.243 286.557C165.648 285.194 169.963 283.696 174.415 282.469C175.732 282.106 175.459 281.652 175.05 280.88C172.371 275.747 170.145 270.478 169.237 264.71C168.555 260.304 168.101 255.898 167.692 251.447C167.556 248.404 167.602 245.27 166.875 241.954ZM144.573 94.3835C145.573 93.7022 146.436 93.248 147.117 92.6121C147.662 92.1125 148.707 91.7491 148.616 90.8862C148.48 88.7514 148.116 86.5712 147.253 84.6181C145.663 81.0299 143.438 77.7142 141.076 74.5802C140.667 73.9898 140.44 73.9444 139.759 74.2623C134.899 76.3062 130.493 79.1677 126.087 81.9838C121.409 85.0269 116.822 88.2518 112.325 91.522C110.281 93.0209 108.237 94.5652 106.239 96.1549C105.421 96.8362 105.012 97.4721 105.694 98.6985C108.146 103.195 111.235 107.237 114.051 111.462C115.186 113.142 116.504 113.233 118.184 112.007C121.364 109.645 124.134 106.692 127.813 104.921C130.13 103.831 132.083 102.014 134.218 100.515C134.581 100.243 134.99 100.061 134.853 99.5614C134.672 98.8347 135.217 98.5622 135.58 98.1988C136.125 97.6992 136.625 97.1996 137.124 96.6545C138.532 95.0194 139.759 93.2026 141.031 91.4766C142.484 89.5235 142.393 89.5235 144.619 90.2957C145.255 90.5228 145.255 90.7045 145.118 91.2495C144.982 92.2033 144.437 93.1118 144.573 94.3835ZM124.543 139.486C129.403 138.623 133.672 136.67 137.76 134.308C138.26 134.036 138.941 133.854 138.896 133.082C138.76 130.72 138.714 128.358 138.487 125.996C138.305 124.225 138.169 122.499 138.623 120.773C139.941 115.595 140.713 110.281 143.392 105.557C143.71 105.012 143.347 104.83 143.029 104.603C142.393 104.103 141.621 103.695 141.53 102.832C141.394 101.197 140.94 99.6523 141.258 97.9717C141.53 96.382 141.53 94.7469 141.666 93.1572C141.258 93.5205 141.076 93.9293 140.849 94.3381C138.987 97.79 138.078 101.651 136.034 105.012C134.717 107.147 133.264 109.191 132.9 111.734C132.81 112.279 132.764 112.87 132.582 113.324C132.401 113.687 132.31 114.323 131.719 114.278C131.265 114.232 131.174 113.733 130.993 113.324C129.721 110.462 130.675 108.1 132.492 105.875C133.491 104.694 134.445 103.513 135.444 102.332C134.354 102.786 133.445 103.422 132.582 104.103C128.585 107.192 124.225 109.69 120.092 112.506C119.683 112.779 119.047 113.233 119.274 113.46C120.092 114.141 119.411 114.823 119.501 115.459C119.638 116.231 119.456 117.23 120.046 117.639C122.272 119.365 123.998 121.59 125.906 123.634C127.087 124.906 128.177 126.314 129.267 127.722C129.585 128.131 129.903 128.767 129.267 129.221C128.722 129.584 128.449 128.948 128.177 128.676C127.314 127.858 126.451 127.041 125.406 125.996C125.406 130.674 124.861 134.989 124.543 139.486ZM206.708 128.267C206.391 130.039 205.891 131.537 205.664 133.173C205.573 133.899 205.8 134.036 206.3 134.308C212.886 137.896 220.017 139.441 227.42 139.758C232.416 139.986 237.458 139.94 242.454 138.986C246.678 138.169 250.766 136.852 254.491 134.671C256.489 133.49 256.444 133.445 255.626 131.174C255.445 130.72 255.263 130.22 255.127 129.721C254.899 128.812 254.536 128.812 253.809 129.312C247.996 133.036 241.364 134.217 234.687 134.989C231.235 135.398 227.738 135.398 224.241 135.08C217.746 134.444 211.796 132.718 206.708 128.267ZM225.422 424.226C223.014 425.316 220.607 425.771 218.2 425.634C216.383 425.498 214.521 425.362 212.749 424.817C212.204 424.635 212.204 424.908 212.25 425.225C213.113 428.859 213.113 432.584 213.658 436.263C214.157 439.669 216.383 441.395 219.472 440.896C220.607 440.714 221.697 440.35 222.833 440.078C223.696 439.896 224.059 439.487 224.104 438.488C224.241 435.945 224.604 433.447 224.831 430.903C225.058 428.677 225.24 426.543 225.422 424.226ZM236.55 222.151C237.276 222.151 237.912 222.196 238.503 222.151C240.91 221.879 243.181 220.834 244.226 218.79C246.133 215.065 245.134 211.568 242.363 208.525C240.138 206.118 237.276 205.709 234.233 205.845C229.555 206.072 226.966 208.025 225.649 212.295C224.922 214.566 224.786 216.928 226.83 218.427C229.646 220.561 232.78 222.469 236.55 222.151ZM180.092 127.54C177.458 127.132 175.096 126.677 172.87 125.678C172.28 125.406 172.007 125.678 171.689 125.951C170.508 127.086 169.282 128.176 168.147 129.357C166.057 131.537 164.059 133.718 162.06 135.852C162.242 135.898 162.742 136.17 163.332 136.125C165.013 135.989 166.648 136.397 168.237 136.806C169.963 137.26 171.235 137.17 172.461 135.625C174.778 132.809 177.594 130.493 180.092 127.54ZM214.839 15.1704C215.747 15.988 216.383 17.0326 216.973 18.0773C217.246 18.5769 217.473 18.7132 218.064 18.4407C221.425 16.8509 224.649 17.396 227.738 19.1674C228.783 19.8033 228.783 18.9857 228.828 18.5315C229.509 13.5353 226.058 11.3097 221.97 11.4459C219.199 11.4913 216.701 12.7177 214.839 15.1704ZM296.732 138.668C294.37 142.029 294.733 148.025 297.231 151.023C298.548 152.567 300.729 152.294 302.046 151.613C302.636 151.341 302.455 151.023 302.273 150.614C300.411 146.662 298.594 142.711 296.732 138.668ZM191.674 210.115C192.492 212.113 194.082 212.386 195.399 212.84C201.848 215.02 208.571 215.52 215.338 215.383C215.611 215.383 216.02 215.52 216.11 214.929C207.844 214.611 199.986 212.022 191.674 210.115ZM234.279 281.924C233.824 279.789 233.416 277.655 232.871 275.52C231.463 269.933 230.009 264.301 228.51 258.714C227.92 256.58 227.238 254.49 226.603 252.401C226.466 251.947 226.239 251.583 225.74 251.72C225.24 251.856 225.422 252.356 225.467 252.673C225.558 253.309 225.74 253.945 225.921 254.536C228.556 263.711 231.917 272.658 234.279 281.924ZM186.814 45.92C186.951 45.92 187.45 46.0562 187.95 46.0562C188.268 46.0562 188.586 45.92 188.586 45.5112C188.586 45.1024 188.313 45.1024 188.041 45.057C186.269 44.8753 185.406 43.7852 185.27 42.1501C185.179 41.3779 184.816 41.2871 184.316 41.4234C183.362 41.6959 182.409 42.0138 181.591 42.6497C181.001 43.1039 180.955 43.3764 181.455 43.9669C182.817 45.5112 184.543 45.92 186.814 45.92ZM248.813 26.6617C249.676 26.0713 250.357 25.4354 251.175 25.2083C252.538 24.7541 252.401 23.8003 252.083 22.8919C251.538 21.2567 249.767 20.3029 248.086 20.5754C247.587 20.6663 247.178 20.8934 247.541 21.393C248.631 22.9827 248.859 24.7087 248.813 26.6617ZM150.206 87.1617C151.114 86.4804 152.022 85.7991 152.885 85.1178C153.34 84.7544 154.021 84.4819 153.476 83.6189C153.022 82.8468 152.477 82.6651 151.75 83.0738C150.751 83.5735 149.751 84.1185 148.616 84.709C149.524 85.3449 149.66 86.3895 150.206 87.1617ZM110.054 111.78C107.692 108.6 105.512 105.648 103.286 102.65C102.832 105.648 107.965 110.644 110.054 111.78ZM255.717 214.702C258.533 214.748 266.981 211.114 268.344 209.252C263.984 210.841 260.077 213.249 255.717 214.702ZM236.277 329.071C237.685 323.302 237.958 316.08 236.731 314.718C236.822 319.623 236.459 324.392 236.277 329.071ZM260.804 88.5243C262.893 90.4774 266.073 89.569 266.709 86.9346C264.847 87.7067 262.984 88.3426 260.804 88.5243ZM375.445 221.424C375.4 221.47 375.309 221.561 375.263 221.606C376.444 222.923 377.58 224.24 378.806 225.512C378.943 225.648 378.897 226.193 379.306 225.875C379.578 225.648 380.033 225.149 379.987 225.058C379.533 224.422 379.669 223.377 378.806 222.969C377.671 222.469 376.535 221.924 375.445 221.424ZM163.196 88.0701C161.515 86.7983 160.788 86.8437 160.153 88.0701C159.835 88.6606 159.789 89.2964 160.243 89.8869C160.561 90.3411 161.061 90.5228 161.561 90.3411C162.242 90.0686 162.242 89.4327 162.242 88.8422C162.242 88.3426 162.015 87.6613 163.196 88.0701ZM362.364 223.604C361.274 223.287 360.32 222.969 359.366 222.651C359.003 222.514 358.912 222.605 358.776 222.923C358.049 224.513 358.367 224.922 360.138 225.013C361.183 225.058 361.728 224.422 362.364 223.604ZM368.087 223.332C368.36 223.832 368.314 224.286 368.269 224.74C368.223 225.467 367.133 226.421 368.223 226.829C369.495 227.329 369.359 225.83 369.631 225.194C370.54 223.241 370.494 223.241 368.087 223.332ZM201.349 228.374C204.21 230.917 207.435 232.87 210.615 234.914C210.66 234.823 210.751 234.732 210.796 234.596C207.662 232.507 204.528 230.418 201.349 228.374ZM268.026 44.0577C267.981 45.6929 267.844 47.0555 267.163 48.4181C267.799 48.2818 268.344 48.6452 268.753 48.1456C269.389 47.328 269.071 45.057 268.026 44.0577ZM259.714 39.5611C258.715 41.0146 258.079 43.2856 258.17 44.9207C259.26 43.9215 259.805 42.0593 259.714 39.5611ZM282.742 259.577H278.745C280.017 261.076 281.879 261.076 282.742 259.577ZM194.672 82.2563C195.944 81.1208 197.397 81.3025 198.851 81.3025C196.943 79.9853 195.353 80.3032 194.672 82.2563ZM124.861 79.2131C125.996 78.441 126.95 77.8505 127.95 77.2146C126.496 76.4425 125.451 77.0784 124.861 79.2131ZM244.907 29.4324C243.454 30.6133 243.136 32.0214 242.863 33.7927C243.817 32.2939 244.725 31.2038 244.907 29.4324ZM187.041 41.4234C186.814 42.2864 186.951 42.9222 187.314 43.5581C187.586 44.0123 188.041 44.0577 188.404 43.8761C188.813 43.649 188.54 43.2856 188.404 42.9222C188.177 42.2864 187.632 41.9684 187.041 41.4234ZM200.35 77.578C199.85 76.8058 199.078 76.3971 198.306 76.0337C198.033 75.8974 197.534 75.7612 197.352 76.2608C197.17 76.7604 197.534 76.9875 197.988 77.1238C198.76 77.3509 199.577 77.26 200.35 77.578ZM196.171 85.6174C196.625 86.2533 197.306 86.0262 197.806 85.9353C198.397 85.8445 198.351 85.254 198.169 84.7998C197.942 84.2548 197.624 84.5273 197.352 84.7544C196.943 85.0723 196.58 85.3449 196.171 85.6174ZM183.317 34.5195C181.318 35.0191 179.638 36.6542 179.547 38.0168C180.455 36.5634 181.682 35.5187 183.317 34.5195ZM275.884 251.629C275.929 251.765 275.975 251.856 275.975 251.992C277.019 251.674 278.109 251.311 279.381 250.902C277.973 250.72 276.838 250.857 275.884 251.629Z" fill="black"/>
<path d="M128.767 146.344C128.767 147.026 128.767 147.752 128.767 148.434C128.767 148.706 128.948 149.161 128.494 149.206C128.131 149.251 127.949 148.888 127.904 148.57C127.495 146.708 127.086 144.846 127.131 142.938C127.131 142.211 127.449 142.12 127.994 142.529C128.63 142.983 128.857 143.574 128.812 144.346C128.721 145.027 128.767 145.663 128.767 146.344Z" fill="black"/>
<path d="M227.329 59.7732C229.691 60.0003 231.962 60.4091 233.234 62.7709C233.416 63.1343 233.688 63.4522 233.325 63.861C233.007 64.2244 232.643 64.2698 232.189 64.1335C231.462 63.9064 230.69 63.6339 229.964 63.4068C227.147 62.453 224.331 62.5438 221.47 63.1797C221.016 63.2706 220.289 63.8156 220.017 63.1343C219.744 62.5438 220.425 62.1805 220.879 61.7717C222.742 60.182 225.013 59.9095 227.329 59.7732Z" fill="black"/>
<path d="M212.658 78.1685C214.021 78.3047 215.338 78.0322 216.61 78.4864C217.064 78.6681 217.564 79.0315 217.473 79.2586C217.246 79.849 217.564 80.5758 216.973 81.03C214.975 82.5288 210.66 80.9845 210.069 78.5773C209.842 77.6234 210.024 76.7604 210.705 75.9883C211.069 75.5795 211.477 75.2616 212.022 75.4433C212.613 75.6249 212.84 76.17 212.795 76.7604C212.795 77.2147 212.704 77.6689 212.658 78.1685Z" fill="black"/>
<path d="M229.373 69.902C229.191 70.8104 228.465 71.0829 227.783 71.31C226.966 71.5371 226.33 71.8096 226.33 72.7635C226.33 73.1722 226.057 73.1722 225.739 73.1722C224.831 73.0814 222.56 70.9466 222.515 70.0382C222.424 69.0844 223.423 68.7665 223.786 68.0852C224.013 67.6764 224.559 67.8126 225.013 68.1306C225.876 68.7665 227.011 68.2668 227.965 68.6756C228.646 68.8573 229.01 69.3569 229.373 69.902Z" fill="black"/>
<path d="M220.107 86.662C218.971 88.388 217.291 88.2972 215.837 88.6151C215.02 88.7968 214.157 88.706 213.339 88.6605C212.749 88.6151 211.659 88.9785 211.749 87.8884C211.795 87.0708 212.567 86.4349 213.43 86.4349C215.156 86.4804 216.882 86.1624 218.563 86.662C218.971 86.7529 219.426 86.662 220.107 86.662Z" fill="black"/>
<path d="M203.211 70.992C204.619 69.9019 206.072 69.4023 207.708 69.5386C208.48 69.584 208.798 70.3107 208.843 70.9012C208.979 71.7642 209.025 72.8088 208.207 73.3084C207.617 73.6718 206.617 73.8535 206.209 73.0813C205.573 71.855 204.346 71.6733 203.211 70.992Z" fill="black"/>
<path d="M244.271 74.8073C244.452 73.3539 245.27 72.4001 246.496 71.8096C247.677 71.2646 248.813 71.8096 249.812 72.4455C250.039 72.5817 250.311 72.9451 250.084 73.263C249.857 73.581 249.585 73.3085 249.358 73.1268C248.858 72.7634 248.449 72.7634 247.995 73.1722C247.495 73.6264 248.04 73.9898 248.086 74.3531C248.131 74.6711 248.722 74.989 248.267 75.307C247.995 75.4886 247.632 75.2615 247.405 74.989C246.769 74.2169 246.496 74.8982 246.224 75.307C245.951 75.7612 245.679 76.3062 245.088 76.1245C244.498 76.0337 244.407 75.3524 244.271 74.8073Z" fill="black"/>
<path d="M327.753 189.585C328.026 190.856 328.843 191.719 329.434 192.719C329.57 192.991 330.161 193.173 329.661 193.582C329.343 193.9 329.025 193.718 328.662 193.491C327.345 192.492 326.345 191.174 325.392 189.857C324.529 188.676 323.484 187.586 322.848 186.224C322.257 185.043 322.848 184.407 324.074 184.134C326.073 183.68 327.117 184.997 328.253 186.042C330.342 187.904 332.25 189.993 334.248 191.947C335.021 192.719 334.884 193.127 333.885 193.4C333.158 193.627 332.523 193.4 331.932 192.991C330.433 191.992 329.161 190.72 327.753 189.585Z" fill="black"/>
<path d="M331.614 202.212C331.342 201.712 331.16 201.439 331.387 200.849C333.113 196.807 335.429 193.218 338.427 189.993C338.563 189.857 338.654 189.676 338.836 189.63C339.336 189.403 339.835 188.631 340.426 189.267C340.88 189.766 340.244 190.311 340.017 190.675C338.109 193.218 335.975 195.626 334.158 198.26C333.295 199.486 332.523 200.803 331.614 202.212Z" fill="black"/>
<path d="M337.065 204.937C337.519 204.846 338.019 205.482 338.655 205.845C339.154 206.118 340.063 206.526 339.79 206.981C339.472 207.571 338.609 207.299 337.928 207.072C337.383 206.844 336.838 206.617 336.293 206.39C335.93 206.209 335.294 206.072 335.475 205.436C335.657 204.8 336.247 205.073 337.065 204.937Z" fill="black"/>
<path d="M143.847 83.3464C143.619 83.1647 143.347 83.0284 143.165 82.8013C142.393 81.9384 141.757 80.9845 141.258 79.9399C140.803 79.0314 141.485 78.7589 141.984 78.3956C142.62 77.9414 142.938 78.5318 143.12 78.986C143.574 80.0761 144.028 81.1662 144.437 82.3017C144.664 82.8468 144.346 83.1647 143.847 83.3464Z" fill="black"/>
<path d="M145.709 84.1185C146.435 84.4365 146.39 85.254 146.708 85.8445C146.981 86.3896 146.617 87.0709 146.027 87.0709C145.255 87.1163 145.209 86.2987 145.118 85.7082C145.027 85.0724 145.027 84.4819 145.709 84.1185Z" fill="black"/>
<path d="M226.511 214.611C229.736 215.474 232.779 214.929 235.777 214.748C232.779 214.248 229.827 213.794 226.784 214.066C226.375 214.112 226.33 214.066 226.33 213.703C226.239 212.749 226.466 211.977 227.193 211.296C230.281 208.343 233.96 207.662 238.003 208.434C239.729 208.752 241.182 209.706 242.454 210.841C243.589 211.841 243.771 213.249 243.226 214.657C242.09 217.564 239.229 219.744 234.914 219.153C232.779 218.835 230.735 218.563 228.873 217.382C227.919 216.746 227.102 215.928 226.511 214.611Z" fill="black"/>
</svg>
