<svg id="logo" xmlns="http://www.w3.org/2000/svg" viewBox="0 0 220 41.25">
    <defs>
        <style>
            .cls-1 {
            fill: #69cc38;
            }
           
        </style>
    </defs>
    <g id="texts">
        <path id="t" class="cls-1" d="M41.76,26.7h-9.4V51.29H25.13V26.7H15V20.91H41.76Z"
            transform="translate(-15 -19.38)" />
        <path id="al" class="cls-1"
            d="M81.54,45.5V23c0-2.43-1.36-3.74-3.82-3.65l-8.48.3v6.08l5.07-.26v20H62.73v-6c0-7-5.12-9.79-11-9.79s-10.51,3.15-10.51,8.53h6.41c0-2,1.56-3.16,4.33-3.16,3,0,4.37,1.09,4.37,2.86l-6.89,1c-6.49.91-8.74,3.12-8.74,6.89,0,2.25,1.17,6.41,8,6.41,6.1,0,8.22-3.08,9-6.72h1.74L58.4,48.09h0a3.24,3.24,0,0,0,3.25,3.19H87.33V45.5Zm-31.77.43c-1.17,0-2.38-.39-2.38-1.65s1-1.56,3.12-1.86l5.6-.78C56.11,44.33,53.59,45.93,49.77,45.93Z"
            transform="translate(-15 -19.38)" />
        <path id="e" class="cls-1"
            d="M101,29.23c6.81,0,11.59,4,11.67,10.67v2H95.94c0,2.7,1.82,4.48,5.77,4.48,2.43,0,4.25-.87,4.69-3h6.94C112.9,47,109.3,52,101.71,52c-8.42,0-12.28-5.47-12.28-11.67C89.43,33.39,94.16,29.23,101,29.23Zm5.08,9c0-1.65-1.22-3.3-5.08-3.3s-5,1.65-5,3.3Z"
            transform="translate(-15 -19.38)" />
        <path id="n" class="cls-1"
            d="M124.21,43.18v8.11H117V29.59h7.23v2.65l-1.27,3.86h1.7c.85-3.86,3.53-6.91,8.12-6.91,5.49,0,8.81,3.69,8.81,10.39V51.29h-6.51V40.53c0-4-1.18-5.51-4.55-5.51C126.71,35,124.21,37,124.21,43.18Z"
            transform="translate(-15 -19.38)" />
        <path id="tif" class="cls-1"
            d="M200.15,28.44v1.15h6.51V36.1h-6.51v9.4h6.51v5.79h-53l-.38,0c-.24,0-.47,0-.68,0a3.26,3.26,0,0,1-1.84-.69,3.7,3.7,0,0,1-1.21-3V34.66h-5.07V28.87h5.07V24.75l7.23-2.17v6.29H164v5.79h-7.23V45.49h17.36v-10l-5.07.26V29.67l8.44-.44c2.48-.13,3.86,1.22,3.86,3.65V45.5h12.29V36.1H189.3V29.59h4.34V28.8c0-6,3.58-9.33,11.21-9.33h3.26v5.78h-4.85C201.12,25.25,200.15,26.12,200.15,28.44Z"
            transform="translate(-15 -19.38)" />
        <path id="i-dot" class="cls-1"
            d="M177.09,20.55c-2.56,0-4.08,1.26-4.08,3.47s1.52,3.48,4.08,3.48,4.16-1.22,4.16-3.48S179.65,20.55,177.09,20.55Z"
            transform="translate(-15 -19.38)" />
        <path id="y" class="cls-1"
            d="M235,29.59,225.47,50.2V57c0,2.43-1.28,3.74-3.55,3.65l-10.19-.3V54.18l7.23.13V50.16L209.3,29.59h7.25l5.3,12.14v3.05h1.45V41.73l4.57-12.14Z"
            transform="translate(-15 -19.38)" />
    </g>
</svg>