<svg width="492" height="491" viewBox="0 0 492 491" fill="none" xmlns="http://www.w3.org/2000/svg">
<path d="M353.683 148.252C353.32 155.428 351.866 162.469 347.96 168.737C345.462 172.734 342.237 176.049 338.558 178.911C333.652 182.726 328.656 186.36 323.705 190.13C321.207 192.037 318.8 194.081 316.211 195.807C312.441 198.351 308.081 199.486 303.675 200.304C299.36 201.076 295 201.576 290.639 202.166C288.868 202.393 287.006 202.484 285.234 202.666C285.234 202.575 285.234 202.484 285.234 202.393C279.557 202.757 273.879 203.12 268.202 203.529C262.57 203.937 256.892 204.21 251.26 204.8C247.717 205.164 244.174 206.118 240.632 206.663C237.18 207.208 233.682 207.707 230.185 208.025C225.779 208.389 221.328 208.57 216.922 208.752C215.787 208.797 214.651 208.389 213.516 208.434C209.519 208.616 205.476 208.888 201.479 209.206C201.025 209.252 200.389 209.615 200.207 210.024C199.526 211.523 198.209 211.159 197.21 210.841C195.166 210.296 193.939 208.752 192.849 206.981C192.668 206.708 192.531 206.436 192.304 206.163C191.896 205.527 191.487 204.891 191.033 204.301C189.988 202.802 188.898 201.258 187.944 199.668C186.036 196.352 184.31 192.9 186.036 188.949C186.536 187.768 187.444 186.541 188.444 185.769C192.531 182.544 196.801 179.501 200.934 176.322C201.843 175.641 202.66 174.732 203.296 173.824C205.067 171.235 203.75 168.6 202.66 166.375C201.07 163.105 198.89 160.061 196.846 157.064C193.304 151.977 190.987 146.39 190.033 140.304C189.534 137.033 189.488 133.763 190.487 130.538C190.76 129.584 190.76 128.54 190.805 127.495C191.078 122.499 191.578 117.548 191.487 112.552C191.396 108.418 190.76 104.285 190.033 100.243C189.761 98.6984 188.216 97.4721 187.762 95.9278C186.854 92.8846 183.447 91.4312 183.039 88.0247C182.675 84.7998 183.72 81.8929 184.765 79.0314C186.854 73.2176 190.124 68.0851 193.667 63.0435C197.391 57.7293 200.752 52.1426 204.613 46.8738C209.246 40.6058 214.924 35.3824 221.918 31.7488C227.414 28.8873 233.228 27.3885 239.314 26.6163C245.401 25.8442 251.532 25.2991 257.619 24.3453C264.477 23.2552 270.064 25.7987 275.106 29.932C282.963 36.3817 288.823 44.5119 294.137 53.0964C297.589 58.6831 301.449 64.0427 304.765 69.7202C308.444 76.0337 311.624 82.6196 315.166 89.0239C316.484 91.3858 317.937 93.793 319.754 95.837C324.932 101.742 330.473 107.328 336.877 111.961C339.285 113.687 341.828 115.231 343.917 117.275C348.868 122.045 351.821 127.995 352.729 134.808C353.274 139.259 353.865 143.755 353.683 148.252Z" fill="white"/>
<path d="M410.959 466.603C410.913 466.649 410.868 466.74 410.822 466.785C410.686 467.012 410.504 467.239 410.368 467.421C410.186 467.694 410.005 467.921 409.778 468.148C409.641 468.284 409.505 468.42 409.323 468.557C406.598 470.964 403.055 471.191 399.694 471.736C395.697 472.372 391.746 472.871 388.021 474.461C381.799 477.096 375.394 477.504 368.763 476.596C365.311 476.142 361.678 476.233 358.407 475.233C354.41 474.052 350.595 472.099 346.78 470.283C340.966 467.466 334.834 465.604 328.521 464.423C326.295 464.014 324.069 463.424 321.798 463.379C319.3 463.333 316.757 463.833 314.259 464.105C310.943 464.469 307.673 464.832 304.357 465.15C302.631 465.332 300.86 465.377 299.179 465.468C298.225 468.42 296.181 470.101 293.274 469.919C287.915 469.556 282.601 469.011 277.241 468.511C275.197 468.329 273.108 468.193 271.064 468.102C263.66 467.875 256.348 467.012 249.489 463.833C245.81 462.152 241.995 463.152 238.225 463.379C237.089 463.469 235.908 463.515 234.773 463.651C229.595 464.105 224.417 464.605 219.239 465.105C216.832 465.332 214.425 465.559 212.017 465.877C207.385 466.513 202.706 467.012 198.119 467.921C192.577 468.965 187.127 470.01 181.449 469.965C176.362 469.919 171.321 470.055 166.234 470.328C161.555 470.555 156.922 471.191 152.244 471.327C150.791 471.373 149.11 470.737 147.975 469.828C146.43 468.602 144.795 468.102 143.024 468.102C139.572 468.193 136.12 468.466 132.668 468.784C128.398 469.238 124.947 467.784 121.676 465.059C117.452 461.562 114.318 457.383 112.501 452.205C111.729 450.07 113.137 445.528 114.954 444.03C120.314 439.578 126.9 438.034 133.395 436.308C137.437 435.263 141.525 434.264 145.567 433.356C148.202 432.765 150.836 432.402 153.471 431.857C154.606 431.63 155.742 431.539 155.923 429.858C156.014 429.177 156.832 428.269 157.513 427.951C160.329 426.815 162.282 424.771 164.19 422.546C165.144 421.41 164.326 420.593 163.826 419.82C161.555 416.505 159.057 413.325 156.922 409.919C154.243 405.649 151.563 401.289 149.383 396.747C147.066 391.932 145.113 386.936 143.387 381.894C140.662 373.81 141.252 365.952 146.249 358.866C148.883 355.142 153.016 353.189 157.468 352.19C162.282 351.099 167.142 350.236 172.093 350.691C177.407 351.19 182.721 351.554 187.899 352.644C195.394 354.233 202.842 356.277 210.201 358.503C217.422 360.729 224.508 363.408 231.594 365.952C244.675 370.676 257.847 374.945 271.427 378.079C279.103 379.851 286.779 381.577 294.455 383.484C298.997 384.62 303.449 386.164 307.355 388.889C313.623 393.204 314.667 397.882 311.533 404.832C309.989 408.284 307.809 411.463 306.038 414.824C304.221 418.322 302.858 421.91 303.948 425.998C304.584 428.405 302.676 430.585 299.633 431.221C300.087 431.448 300.723 431.539 300.905 431.902C302.222 434.082 304.357 433.628 306.31 433.628H306.401C307.446 433.628 308.445 433.628 309.489 433.537C314.94 433.265 320.345 432.266 325.75 431.494C333.017 430.449 339.785 427.769 346.734 425.816C351.049 424.59 355.591 424.181 359.997 423.272C364.584 422.319 369.036 423.136 373.396 424.453C376.167 425.271 378.619 426.724 379.8 429.631C379.891 429.495 380.027 429.313 380.118 429.177C380.754 429.268 381.345 429.45 381.98 429.495C382.344 429.54 382.798 429.404 383.116 429.222C386.295 427.133 389.429 424.998 392.291 423.045C393.653 423.863 394.562 424.317 395.47 424.908C397.242 426.043 396.333 427.724 396.061 429.132C395.47 432.538 394.653 435.899 393.971 439.306C393.971 439.397 393.926 439.442 393.926 439.533C393.835 439.896 393.79 440.214 393.699 440.578C393.608 440.941 393.608 441.441 393.79 441.668C395.607 443.939 397.968 445.937 399.286 448.481C401.239 452.205 405.236 454.295 406.553 458.428C406.871 459.382 407.007 460.426 407.416 461.335C407.779 462.152 407.37 463.515 408.915 463.697C409.187 463.742 409.323 464.877 409.551 465.604C409.869 465.831 410.414 466.149 410.913 466.467C410.913 466.558 410.913 466.558 410.959 466.603Z" fill="white"/>
<path d="M382.252 304.044C379.345 309.222 365.129 300.047 362.04 297.049C359.179 302.454 354.818 293.007 352.048 291.326C344.054 283.378 339.512 273.521 336.287 262.848C335.378 264.074 334.47 265.164 333.016 263.847C330.836 265.845 334.061 265.028 329.837 269.252C335.515 276.928 344.19 296.277 326.703 293.461C327.611 293.688 329.247 294.006 329.519 294.914C329.292 297.958 328.702 300.728 324.932 300.229C319.481 299.366 314.076 298.366 308.671 297.276C303.084 296.141 297.452 295.051 291.956 293.643C285.189 292.144 278.285 290.509 276.423 282.878C277.149 282.151 278.012 281.652 278.058 280.743C278.966 277.609 289.504 282.197 292.32 282.288C305.401 286.012 318.3 288.374 331.972 287.42C330.11 278.154 322.57 270.66 318.164 262.348C305.9 273.158 290.14 273.249 274.56 274.157C274.288 288.692 284.916 303.544 281.192 317.307C278.239 323.893 270.382 325.982 263.705 326.209C251.532 326.663 241.676 319.532 231.774 313.628C229.549 314.945 227.505 317.852 225.007 315.535C224.008 314.627 222.69 315.217 222.509 316.535C222.009 318.942 222.963 322.485 220.056 323.575C217.649 325.392 217.058 328.662 214.469 330.479C212.743 333.703 210.563 337.201 207.792 339.881C207.157 340.562 206.339 339.881 205.658 339.881C203.478 339.926 203.114 337.11 200.979 337.155C200.843 337.155 200.344 335.52 200.616 334.975C204.658 328.48 208.156 321.213 213.243 315.581C209.291 312.855 204.976 306.587 199.935 310.176C200.571 312.083 201.252 313.991 201.933 315.899C199.344 316.671 198.163 315.263 197.119 313.491C195.12 315.081 193.213 316.625 191.759 317.806C189.352 316.535 186.036 316.58 186.763 313.446C187.898 309.358 187.353 303.317 190.76 300.456C194.03 299.593 196.21 301.046 198.3 303.544C206.339 304.589 206.884 304.044 213.879 309.086C214.378 308.086 214.923 307.042 215.469 305.997C208.565 302.091 201.343 298.684 195.983 292.734C192.985 289.873 189.125 287.965 185.082 289.737C176.225 292.144 167.368 294.733 158.511 297.049C154.242 298.139 149.836 298.821 145.476 299.593C143.613 299.729 144.022 301.273 144.022 302.636C144.159 305.724 144.113 305.77 141.161 306.542C137.573 307.269 135.12 303.771 134.484 300.774C134.166 299.229 133.212 298.503 132.031 297.867C124.991 293.007 111.728 291.145 110.457 281.743C109.594 280.062 110.593 275.52 107.686 276.383C98.6473 279.472 73.8932 276.338 83.9765 262.711C88.7003 257.443 94.7412 255.535 101.554 255.308C118.224 256.125 104.098 247.45 128.489 246.996C128.307 246.224 128.08 245.361 127.853 244.543C127.989 244.589 128.125 244.589 128.261 244.634C129.624 241.863 127.308 239.002 129.715 236.595C131.486 234.642 133.394 232.916 136.255 232.825C138.708 233.234 142.751 231.644 144.113 234.278C145.657 237.185 147.792 240.001 147.383 243.544C149.019 243.68 150.699 243.817 152.425 243.998C149.382 238.094 155.65 233.234 161.146 235.641C164.779 235.959 167.732 244.952 170.502 242.817C175.135 232.143 185.673 241.046 193.349 240.455C194.03 238.82 195.665 239.138 196.846 238.866C201.116 238.184 207.247 235.595 210.79 239.002C212.198 240.183 214.378 239.047 216.014 239.047C218.512 238.729 216.286 232.325 216.604 230.327C216.377 224.831 223.553 228.374 226.824 228.146C249.307 212.34 265.113 198.669 294.318 208.207C304.492 210.433 308.944 220.38 316.393 226.511C321.843 230.19 322.933 236.277 325.386 241.909C325.568 241.863 325.749 241.818 325.931 241.773C325.068 238.911 327.248 235.732 329.701 234.324C332.744 232.189 334.879 244.407 336.105 246.496C340.465 259.487 342.055 274.157 352.002 284.422C354.001 287.42 356.635 289.782 360.36 289.328C364.765 289.191 374.213 293.643 376.347 297.458C377.301 299.774 384.478 300.002 382.252 304.044Z" fill="white"/>
<path d="M324.251 338.245C323.978 338.654 323.252 338.972 322.752 338.972C320.89 338.927 319.028 338.881 317.211 338.609C317.074 338.609 316.893 338.563 316.757 338.563C315.212 338.291 313.713 338.018 312.169 337.746C309.262 337.201 306.401 336.656 303.539 336.02C296.272 334.43 289.05 332.75 282.192 329.888C280.102 329.025 278.967 327.617 279.512 326.572C279.921 325.8 282.555 325.392 283.872 325.8C286.824 326.663 289.822 327.526 292.865 328.253C293.365 328.389 294.092 327.844 294.637 327.572C296.317 326.754 298.043 327.753 297.998 329.525C303.993 331.16 309.943 332.886 315.939 334.43C317.62 334.884 319.482 334.612 321.162 335.021C322.207 335.248 323.161 336.065 324.069 336.747C324.342 337.019 324.478 337.973 324.251 338.245Z" fill="white"/>
<path d="M410.822 465.74C410.186 463.152 409.641 460.472 408.551 458.11C405.735 452.069 401.42 447.118 396.56 442.667C395.697 441.849 394.925 440.896 393.88 439.669C393.835 439.578 393.744 439.488 393.653 439.397C393.744 439.397 393.835 439.442 393.925 439.442C394.652 436.036 395.424 432.674 396.015 429.268C396.287 427.86 397.15 426.225 395.424 425.044C394.561 424.453 393.608 423.999 392.245 423.182C389.383 425.135 386.249 427.269 383.07 429.359C382.752 429.54 382.298 429.677 381.935 429.631C381.299 429.586 380.708 429.45 380.072 429.313C379.981 429.45 379.845 429.631 379.754 429.768C378.573 426.861 376.121 425.407 373.35 424.59C368.99 423.272 364.539 422.455 359.951 423.409C355.545 424.317 351.003 424.726 346.688 425.952C339.694 427.905 332.971 430.585 325.704 431.63C320.299 432.402 314.894 433.401 309.444 433.674C309.943 433.765 310.397 433.855 310.852 433.946C311.26 437.126 311.669 440.169 311.942 443.257C312.26 446.755 311.397 450.07 309.852 453.204C308.444 456.111 306.9 458.927 305.356 461.789C304.538 463.288 301.041 463.469 299.224 462.198C298.861 461.925 298.497 461.607 297.998 461.244C299.133 457.292 300.223 453.295 301.404 449.344C302.721 444.847 304.175 440.35 305.219 435.808C305.447 434.764 305.81 434.128 306.355 433.81H306.264C304.311 433.81 302.176 434.264 300.859 432.084C300.677 431.766 300.042 431.675 299.587 431.403C302.631 430.767 304.538 428.587 303.902 426.179C302.812 422.091 304.129 418.503 305.992 415.006C307.763 411.645 309.898 408.465 311.488 405.013C314.622 398.019 313.531 393.34 307.309 389.071C303.403 386.391 298.951 384.801 294.409 383.666C286.733 381.758 279.057 380.032 271.381 378.261C257.846 375.127 244.629 370.857 231.548 366.134C224.462 363.545 217.377 360.91 210.155 358.685C202.797 356.459 195.393 354.415 187.853 352.825C182.675 351.735 177.316 351.372 172.047 350.872C167.096 350.418 162.236 351.236 157.422 352.371C152.97 353.37 148.883 355.324 146.203 359.048C141.207 366.088 140.571 373.991 143.341 382.076C145.067 387.118 147.02 392.114 149.337 396.929C151.517 401.471 154.197 405.786 156.877 410.101C159.011 413.507 161.509 416.686 163.78 420.002C164.28 420.774 165.098 421.592 164.144 422.727C162.236 424.953 160.283 426.997 157.467 428.132C156.786 428.405 155.968 429.313 155.877 430.04C155.696 431.675 154.515 431.811 153.425 432.039C150.79 432.584 148.11 432.947 145.521 433.537C141.434 434.446 137.391 435.445 133.349 436.49C126.854 438.216 120.268 439.76 114.908 444.211C113.091 445.71 111.683 450.207 112.455 452.387C114.272 457.565 117.406 461.744 121.63 465.241C124.901 467.966 128.353 469.42 132.622 468.965C136.074 468.602 139.526 468.329 142.978 468.284C144.749 468.239 146.384 468.784 147.929 470.01C149.064 470.918 150.79 471.554 152.198 471.509C156.877 471.373 161.509 470.737 166.188 470.51C171.275 470.237 176.316 470.101 181.404 470.146C187.081 470.192 192.577 469.147 198.073 468.102C202.66 467.239 207.339 466.694 211.971 466.058C214.379 465.74 216.786 465.513 219.193 465.286C224.371 464.787 229.549 464.287 234.727 463.833C235.863 463.742 236.998 463.651 238.179 463.56C241.949 463.333 245.764 462.334 249.443 464.014C256.302 467.148 263.569 468.011 271.018 468.284C273.062 468.329 275.151 468.511 277.195 468.693C282.555 469.147 287.869 469.737 293.229 470.101C296.135 470.283 298.179 468.602 299.133 465.65C300.814 465.559 302.585 465.468 304.311 465.332C307.627 465.014 310.942 464.65 314.213 464.287C316.711 464.015 319.254 463.56 321.753 463.56C323.978 463.606 326.249 464.151 328.475 464.605C334.788 465.831 340.92 467.694 346.734 470.464C350.549 472.281 354.319 474.234 358.361 475.415C361.677 476.414 365.265 476.323 368.717 476.778C375.303 477.686 381.753 477.232 387.975 474.643C391.7 473.053 395.697 472.554 399.648 471.918C402.964 471.373 406.552 471.146 409.278 468.738C409.096 468.738 408.96 468.784 408.778 468.784C403.736 469.737 398.74 470.646 393.698 471.645C389.838 472.417 385.614 470.828 383.57 467.875C382.071 465.695 380.299 463.697 378.755 461.562C377.438 459.7 375.984 457.883 375.121 455.793C372.351 449.253 369.217 442.985 364.947 437.307C362.722 434.355 360.814 431.221 358.634 427.951C361.405 427.769 363.676 427.905 365.992 429.222C368.308 430.54 371.124 430.994 373.668 431.948C374.894 432.402 376.302 431.948 377.438 433.174C383.07 439.26 388.838 445.165 394.561 451.206C398.558 455.43 402.328 459.79 403.873 465.604C404.281 467.148 405.326 468.239 407.007 468.375C407.597 468.42 408.187 467.966 408.778 467.966C409.414 467.966 409.913 467.875 410.277 467.603C410.504 467.421 410.686 467.239 410.731 466.967C410.776 466.876 410.776 466.831 410.776 466.74C410.913 466.286 410.913 466.013 410.822 465.74ZM134.348 465.15C132.077 465.241 129.715 465.559 127.535 465.105C121.903 463.924 117.497 458.746 116.68 453.068C115.998 448.481 116.68 447.345 120.677 444.802C125.673 441.622 131.35 440.26 136.801 438.307C137.982 437.898 139.163 437.534 140.661 437.035C139.072 446.573 139.526 455.657 142.569 464.696C139.753 464.787 137.073 465.059 134.348 465.15ZM154.469 468.329C154.56 467.739 154.923 466.967 154.787 466.286C154.696 465.831 153.924 465.286 153.425 465.241C151.835 465.059 150.245 465.014 148.655 465.059C147.475 465.105 147.247 464.65 147.247 463.606C147.293 454.658 147.247 445.665 147.247 436.626C150.2 436.444 152.743 436.263 155.241 436.081C155.423 436.081 155.65 436.036 155.786 436.126C159.057 437.625 162.372 439.079 166.142 440.805C164.235 441.486 162.781 441.986 161.282 442.485C158.375 443.484 156.922 445.483 156.831 448.617C156.74 452.387 157.83 455.884 159.329 459.291C159.965 460.744 160.737 462.243 161.6 463.56C162.054 464.242 162.963 464.605 163.644 465.105C163.826 464.968 164.008 464.832 164.189 464.741C164.098 464.151 164.189 463.515 163.962 463.015C161.827 458.292 161.646 453.341 162.054 448.299C162.1 447.618 163.19 446.936 163.917 446.437C165.416 445.438 167.005 444.62 168.731 443.621C169.549 444.847 170.457 446.391 171.502 447.754C174.227 451.251 176.998 454.703 179.768 458.11C180.313 458.791 180.859 459.2 180.541 460.426C180.313 461.335 181.404 462.516 181.903 463.56C183.22 466.195 185.9 466.513 188.671 467.194C177.134 467.557 165.824 467.921 154.469 468.329ZM247.99 458.337C245.355 457.247 242.721 456.157 240.041 455.112C225.825 449.435 211.608 443.757 197.437 437.989C193.213 436.263 189.08 434.31 184.901 432.357C183.629 431.766 182.675 430.903 183.357 428.587C205.295 437.807 226.779 447.754 248.262 457.565C248.172 457.883 248.081 458.11 247.99 458.337ZM273.561 406.967C273.334 406.83 273.062 406.694 272.835 406.558C272.789 406.558 272.744 406.558 272.699 406.558C272.517 406.512 272.335 406.421 272.199 406.376C271.518 406.194 270.791 406.013 270.11 405.831C269.337 405.649 268.52 405.513 267.748 405.331C256.302 401.562 244.765 397.928 233.364 393.976C215.105 387.663 196.892 381.168 178.678 374.582C171.911 372.129 165.279 369.313 158.603 366.679C158.103 366.497 157.603 366.315 157.195 365.77C158.784 366.224 160.374 366.588 161.918 367.133C184.856 375.49 207.747 383.984 230.73 392.205C242.994 396.611 255.393 400.517 267.702 404.695C267.793 404.741 267.839 404.877 267.929 404.968C268.702 405.195 269.474 405.377 270.246 405.604C270.882 405.831 271.518 406.058 272.199 406.285C272.381 406.331 272.562 406.376 272.744 406.421C272.789 406.421 272.789 406.467 272.835 406.467C273.107 406.512 273.425 406.512 273.698 406.558C273.652 406.694 273.607 406.83 273.561 406.967ZM360.451 437.852C365.311 444.484 368.263 452.16 372.215 459.291C372.941 460.608 373.668 461.971 374.622 463.106C377.392 466.286 380.254 469.329 383.433 472.781C380.481 473.326 377.983 473.825 375.485 474.279C373.35 474.688 371.215 475.37 369.081 475.324C363.448 475.233 358.134 473.417 352.911 471.463C346.007 468.92 339.149 466.195 332.108 463.924C329.292 463.015 326.204 463.106 323.206 462.834C321.662 462.697 320.117 462.516 318.573 462.516C315.53 462.47 312.441 462.516 309.58 462.516C310.261 462.061 311.17 461.471 312.078 460.881C315.53 458.746 316.756 455.43 317.301 451.615C318.164 445.574 316.893 439.851 314.622 434.082C316.393 434.264 318.028 434.4 319.436 434.537C319.209 437.807 318.709 441.123 318.846 444.393C318.982 448.163 319.754 451.933 321.798 455.248C322.343 456.111 322.933 457.065 324.341 456.293C322.07 451.161 324.205 445.892 323.978 440.714C323.887 438.715 323.978 436.717 323.978 434.537C326.158 434.673 328.293 434.809 330.201 434.9C330.201 437.216 330.11 439.442 330.201 441.668C330.428 447.345 332.154 452.614 335.333 457.338C336.06 458.428 337.014 459.245 338.467 458.155C338.74 457.928 339.285 458.019 339.33 458.019C338.603 449.525 337.877 441.077 337.15 432.311C343.055 430.948 348.914 429.586 354.773 428.269C356.681 431.448 358.271 434.855 360.451 437.852ZM385.205 431.811C388.52 431.176 391.609 430.54 394.97 429.858C394.425 432.856 393.925 435.854 393.335 439.17C390.564 436.671 387.975 434.31 385.205 431.811ZM187.762 95.9278C188.217 97.4721 189.761 98.7439 190.033 100.243C190.76 104.285 191.396 108.464 191.487 112.552C191.578 117.502 191.078 122.499 190.806 127.495C190.76 128.494 190.76 129.584 190.488 130.538C189.488 133.763 189.534 137.079 190.033 140.304C190.987 146.39 193.349 151.977 196.847 157.064C198.936 160.061 201.071 163.105 202.66 166.375C203.75 168.6 205.068 171.235 203.296 173.824C202.66 174.778 201.843 175.641 200.934 176.322C196.801 179.501 192.532 182.544 188.444 185.769C187.399 186.587 186.536 187.768 186.036 188.949C184.356 192.9 186.082 196.352 187.944 199.668C188.853 201.258 189.943 202.757 191.033 204.301C191.532 203.302 191.941 202.575 192.304 201.803C193.803 200.713 195.211 199.305 196.847 198.532C201.843 196.307 206.93 194.308 212.017 192.264C213.561 191.629 215.151 191.22 216.877 190.993C216.377 191.265 215.832 191.538 215.333 191.81C209.519 194.535 203.66 197.124 197.891 200.031C196.301 200.849 194.939 202.166 193.531 203.347C193.349 203.62 193.031 204.074 192.85 204.346C192.668 204.937 192.486 205.527 192.259 206.072C192.259 206.072 192.259 206.072 192.259 206.118C192.441 206.39 192.622 206.663 192.804 206.935C193.894 208.707 195.121 210.251 197.164 210.796C198.164 211.068 199.435 211.477 200.162 209.978C200.344 209.57 200.98 209.206 201.434 209.161C205.431 208.843 209.473 208.57 213.47 208.389C214.606 208.343 215.741 208.752 216.877 208.707C221.283 208.525 225.734 208.343 230.14 207.98C233.637 207.662 237.089 207.162 240.586 206.617C244.129 206.072 247.626 205.118 251.215 204.755C256.847 204.165 262.524 203.892 268.156 203.483C273.834 203.074 279.512 202.711 285.189 202.348C285.189 202.439 285.189 202.529 285.189 202.62C287.006 202.439 288.823 202.348 290.594 202.121C294.954 201.53 299.315 201.031 303.63 200.258C308.036 199.441 312.396 198.305 316.166 195.762C318.755 193.99 321.162 191.946 323.66 190.084C328.611 186.36 333.607 182.681 338.513 178.865C342.192 176.004 345.417 172.643 347.915 168.691C351.821 162.423 353.274 155.428 353.638 148.207C353.865 143.755 353.229 139.213 352.638 134.762C351.73 127.949 348.778 121.999 343.827 117.23C341.737 115.186 339.149 113.642 336.787 111.916C330.382 107.283 324.841 101.742 319.663 95.7916C317.892 93.7476 316.393 91.3858 315.076 88.9785C311.533 82.5742 308.353 75.9883 304.674 69.6748C301.359 63.9973 297.498 58.6377 294.046 53.051C288.732 44.4665 282.873 36.3363 275.015 29.8866C269.973 25.7533 264.387 23.2098 257.528 24.2999C251.442 25.2537 245.31 25.7988 239.224 26.5709C233.137 27.3431 227.324 28.7965 221.828 31.7034C214.788 35.3825 209.155 40.5604 204.523 46.8284C200.662 52.0517 197.301 57.6384 193.576 62.998C190.079 68.0397 186.763 73.2176 184.674 78.986C183.629 81.8475 182.585 84.7544 182.948 87.9793C183.447 91.3858 186.809 92.8392 187.762 95.9278ZM330.473 112.461C339.603 119.228 343.463 128.767 344.962 139.622C344.826 139.713 344.644 139.804 344.508 139.895C344.281 139.486 343.963 139.077 343.872 138.623C342.691 131.356 339.103 125.269 334.561 119.683C333.38 118.229 332.063 116.867 330.882 115.368C330.337 114.641 330.064 113.733 329.656 112.915C329.974 112.733 330.201 112.597 330.473 112.461ZM319.845 143.755L321.435 152.34H321.389C321.207 152.385 321.071 152.385 320.935 152.431C320.39 149.66 319.89 146.844 319.345 144.073C319.345 143.983 319.3 143.937 319.3 143.846C319.481 143.846 319.663 143.801 319.845 143.755ZM249.489 180.909C249.262 181 249.034 181.136 248.807 181.227C248.444 181.364 248.126 181.5 247.763 181.681C247.536 181.772 247.309 181.863 247.081 181.954C246.945 181.999 246.854 182.045 246.718 182.09C246.491 182.181 246.264 182.227 245.991 182.317C244.765 182.681 243.539 182.908 242.176 182.908C244.084 181.5 246.218 180.773 248.444 180.228C250.17 179.819 251.896 179.547 253.577 179.138H253.622C252.214 179.638 250.851 180.319 249.489 180.909ZM309.08 130.947C309.353 130.538 309.989 130.402 310.534 130.266C303.766 138.169 302.903 155.292 308.853 166.738C308.944 166.874 309.08 167.011 309.216 167.147L309.625 168.146C309.534 168.146 309.489 168.192 309.398 168.192C309.216 167.919 309.08 167.601 308.899 167.329C308.808 167.283 308.717 167.192 308.671 167.102C305.855 163.513 304.629 159.289 304.084 154.883C303.221 148.161 304.311 141.575 306.673 135.262C307.173 133.718 308.172 132.31 309.08 130.947ZM218.103 57.3205C218.149 57.1388 218.149 56.9571 218.149 56.7755C226.188 57.593 234.227 58.4106 242.221 59.2736H242.267C242.267 59.5007 242.221 59.6824 242.221 59.9095C234.182 59.1373 226.143 58.3652 218.103 57.593C218.103 57.5022 218.103 57.4113 218.103 57.3205ZM206.93 68.2214C207.747 67.2221 208.383 67.0859 209.655 67.8126C215.287 71.0829 221.373 73.4447 227.642 74.8073C234.227 76.2608 240.995 77.26 247.717 77.7597C255.53 78.3047 263.387 78.123 271.245 78.2139C272.29 78.2139 272.88 78.5318 273.561 79.3948C277.15 83.7097 281.101 87.6159 286.415 89.3419C285.462 92.0217 284.417 94.6106 283.599 97.2904C283.236 98.4714 283.327 99.834 283.463 101.106C283.509 101.605 284.235 102.06 284.689 102.514C284.962 102.06 285.416 101.605 285.462 101.06C285.961 97.3358 287.506 94.0656 289.686 91.1133C290.549 89.9323 291.775 88.9331 292.956 88.0247C294.319 86.98 296.499 87.4342 298.134 88.7968C302.131 92.1125 304.129 96.5637 305.492 101.424C307.854 109.872 302.085 117.094 296.272 120.364C294.909 121.136 293.229 120.773 292.547 119.774C290.503 121.227 288.414 122.59 286.415 124.134C285.87 124.588 285.507 125.406 285.28 126.132C283.054 133.672 281.919 141.394 282.6 149.206C283.372 157.836 286.824 165.376 292.956 171.598C296.181 174.868 299.905 177.457 304.538 179.547C303.266 180.41 302.403 181.091 301.404 181.591C297.453 183.68 293.637 186.042 289.459 187.586C286.143 188.812 282.418 189.13 278.83 189.585C276.378 189.857 273.789 189.993 271.427 189.494C269.337 189.085 267.566 187.314 265.477 186.996C262.661 186.541 260.889 184.543 258.573 183.317C258.119 183.09 257.801 182.635 257.392 182.317C257.483 182.136 257.619 181.909 257.71 181.727C258.8 182.227 259.89 182.681 261.207 183.271C260.753 177.23 260.253 171.189 259.754 165.058C260.299 164.422 261.071 163.468 261.888 162.514C261.752 162.287 261.616 162.105 261.48 161.878C260.162 162.06 258.845 162.242 257.483 162.423C256.665 161.787 256.166 160.288 254.621 161.197C254.394 161.333 254.031 161.56 253.985 161.742C253.804 163.695 252.396 163.332 251.169 163.422C249.352 163.513 247.536 163.695 245.673 163.786C240.677 163.968 235.817 163.059 231.23 161.061C226.597 159.017 221.919 157.018 217.467 154.611C211.971 151.704 208.156 146.844 204.341 142.075C201.616 138.668 199.481 134.898 198.618 130.584C198.482 129.948 198.391 129.221 198.527 128.585C198.618 127.949 198.618 127.177 199.844 127.45C200.526 127.586 201.389 126.995 202.342 126.677C201.57 121 200.753 115.322 199.981 109.69V109.736C199.345 106.783 198.754 103.831 198.118 100.879C197.982 100.288 197.937 99.6977 197.846 99.0164C200.98 97.7901 204.205 96.5183 207.384 95.2465C207.248 95.1557 207.112 95.0648 206.975 94.9286C207.293 94.111 207.611 93.2934 207.974 92.2942C207.657 91.6129 206.294 91.5675 206.203 90.1594C206.158 89.6598 204.931 89.0693 203.569 89.3419C200.753 89.8869 198.981 91.8854 197.028 93.3389C195.575 90.432 194.167 87.5705 192.759 84.7544C197.528 79.304 202.252 73.7627 206.93 68.2214ZM289.686 328.389C298.77 331.569 307.808 334.839 316.893 338.064C316.938 338.064 316.938 338.155 317.256 338.609C319.073 338.881 320.935 338.927 322.797 338.972C323.297 338.972 324.024 338.654 324.296 338.245C324.523 337.928 324.387 337.019 324.069 336.747C323.206 336.02 322.252 335.248 321.162 335.021C319.482 334.612 317.619 334.884 315.939 334.43C309.943 332.886 303.993 331.16 297.998 329.525C298.043 327.753 296.317 326.754 294.637 327.572C294.046 327.844 293.365 328.389 292.865 328.253C289.867 327.526 286.87 326.663 283.872 325.8C282.555 325.392 279.875 325.8 279.512 326.572C279.012 327.617 280.102 329.025 282.191 329.888C289.095 332.75 296.272 334.43 303.539 336.02C306.4 336.656 309.307 337.201 312.169 337.746C305.219 335.611 298.316 333.431 291.366 331.251C289.504 330.66 287.687 329.979 285.78 329.298C287.006 327.663 288.414 327.935 289.686 328.389ZM181.449 237.821C180.722 237.73 179.996 237.639 179.314 237.594C180.223 237.776 181.131 237.912 182.085 237.957C181.858 237.866 181.676 237.821 181.449 237.821ZM238.452 225.33L263.751 212.567L296.09 223.514L300.132 252.083L279.375 270.796L235.681 254.172L238.452 225.33Z" fill="black"/>
<path d="M380.89 300.274C379.3 299.366 376.893 298.639 376.348 297.276C375.485 294.96 373.395 294.642 371.987 293.37C371.488 292.916 370.761 292.689 370.125 292.416C367.037 290.917 364.13 288.964 360.36 289.192C357.498 289.373 354.909 288.465 353.229 285.876C352.865 285.331 352.457 284.786 352.002 284.286C348.096 280.107 345.099 275.247 343.236 269.933C340.511 262.212 338.513 254.218 336.105 246.36C334.924 242.59 333.471 238.866 332.108 235.141C331.7 234.006 330.973 233.597 329.701 234.187C328.611 234.687 325.931 237.639 325.84 238.82C325.795 239.138 325.84 239.456 325.84 239.729C325.886 240.365 325.886 241.001 325.931 241.636C325.75 241.682 325.568 241.727 325.386 241.773C324.659 239.956 323.66 238.139 323.206 236.277C322.161 232.098 319.709 229.055 316.393 226.375C313.668 224.195 311.26 221.515 309.08 218.79C305.129 213.839 300.632 209.706 294.319 208.071C290.049 206.981 285.689 205.845 281.328 205.255C277.922 204.8 274.425 205.073 270.973 205.164C269.655 205.209 268.338 205.436 267.066 205.754C263.796 206.617 260.48 207.299 257.346 208.525C254.258 209.751 251.26 211.341 248.444 213.112C245.31 215.065 242.449 217.382 239.405 219.471C235.136 222.424 230.821 225.33 226.824 228.056C225.779 227.919 224.871 227.829 223.917 227.692C223.009 227.602 222.146 227.465 221.237 227.374C220.147 227.284 218.921 226.966 217.967 227.329C216.877 227.738 216.468 228.919 216.604 230.236C216.877 232.552 216.877 234.869 217.149 237.14C217.286 238.184 217.149 238.82 216.014 238.957C214.697 239.138 213.38 239.365 212.017 239.411C211.608 239.456 210.972 239.229 210.745 238.911C209.246 236.822 206.884 237.412 205.068 237.412C202.342 237.367 199.526 238.139 196.801 238.775C195.575 239.047 193.985 238.73 193.304 240.365C193.258 240.501 192.85 240.546 192.622 240.546C191.26 240.365 189.852 240.319 188.535 239.956C186.899 239.502 185.264 238.82 183.629 238.321C180.495 238.548 177.543 238.775 174.5 239.002C174.954 238.412 175.408 238.003 175.862 237.73C173.637 238.23 171.82 239.638 170.457 242.727C170.321 243.044 169.185 243.362 168.958 243.135C167.914 242.136 166.824 241.137 166.051 239.91C166.006 239.865 165.961 239.774 165.915 239.729C162.055 240.047 158.466 240.365 154.787 240.637V235.777C156.831 235.096 158.92 235.505 161.101 235.505C160.011 235.096 158.83 234.869 157.467 234.914C154.742 234.96 151.653 237.503 151.517 240.138C151.472 241.318 152.017 242.499 152.335 243.862C150.609 243.726 148.973 243.544 147.293 243.408V242.136C147.293 239.047 145.294 236.731 144.023 234.142C143.523 233.143 142.569 232.507 141.161 232.643C139.526 232.825 137.845 232.643 136.165 232.689C133.303 232.734 131.396 234.46 129.624 236.458C128.171 238.094 128.216 239.865 128.716 241.864C128.898 242.636 128.353 243.635 128.171 244.498C128.035 244.452 127.898 244.452 127.762 244.407C127.989 245.225 128.216 246.088 128.398 246.86C125.582 247.041 122.811 246.996 120.131 247.496C115.953 248.222 112.183 249.812 110.23 254.082C110.048 254.4 109.549 254.763 109.185 254.808C106.642 254.99 104.053 255.126 101.464 255.217C94.6507 255.444 88.6552 257.352 83.886 262.621C79.8891 267.072 80.752 272.886 86.8384 275.066C93.606 277.518 100.555 278.154 107.595 276.292C108.64 276.02 109.458 276.201 109.594 277.609C109.73 278.972 110.048 280.335 110.366 281.697C111.093 284.74 112.047 287.602 115.09 289.146C120.677 292.008 126.309 294.824 131.895 297.731C133.076 298.366 134.03 299.093 134.348 300.637C134.621 301.955 135.393 303.136 136.029 304.362C136.755 305.77 139.481 306.815 141.07 306.406C144.023 305.634 144.023 305.588 143.932 302.5C143.932 302.091 143.977 301.637 143.932 301.228C143.796 300.092 144.295 299.684 145.431 299.457C149.791 298.684 154.197 298.049 158.466 296.913C165.37 295.142 172.229 293.189 179.087 291.281C175.226 291.69 171.366 292.053 167.505 292.598C159.556 293.734 151.608 295.096 143.478 296.368C143.296 295.369 143.114 294.097 142.978 293.279C143.75 292.416 144.795 291.69 144.658 291.281C144.386 290.372 143.75 289.328 142.933 288.964C140.253 287.738 137.391 287.647 134.666 288.874C134.076 289.146 133.621 290.1 133.44 290.872C133.213 291.599 133.394 292.462 133.394 293.597C128.307 291.417 123.493 289.328 118.678 287.284C118.723 287.102 118.678 287.148 118.723 286.966C121.267 286.603 123.811 286.285 126.309 285.876C132.077 284.922 137.845 283.923 143.614 282.969C149.428 281.97 155.241 281.016 161.055 279.971C165.506 279.199 169.912 278.245 174.363 277.473C177.543 276.973 180.768 276.656 183.947 276.247C185.628 276.02 187.308 275.838 188.943 275.475C189.579 275.338 190.124 274.793 190.715 274.475C190.079 273.839 189.488 272.84 188.716 272.704C187.217 272.431 185.628 272.477 184.129 272.659C180.904 273.022 177.679 273.567 174.454 274.067C170.003 274.793 165.552 275.52 161.101 276.292C155.014 277.337 148.973 278.427 142.887 279.426C133.985 280.925 125.037 282.378 115.998 283.877V277.973C115.998 275.656 115.953 273.294 115.998 270.978C116.089 267.753 116.271 264.528 116.407 261.303C116.543 257.851 116.68 254.4 116.68 250.948C116.68 249.857 116.861 249.358 117.997 249.312C120.54 249.131 123.084 248.858 125.627 248.631C131.305 248.132 137.028 247.677 142.705 247.132C148.383 246.587 154.061 245.906 159.738 245.27C166.46 244.543 173.137 243.817 179.859 243.044C181.585 242.863 183.448 242.091 185.037 242.409C187.444 242.954 189.398 242 191.578 241.682C196.029 241.001 200.526 240.819 205.022 240.455C205.476 240.41 205.885 240.455 205.976 240.455C205.703 241.137 205.113 241.864 205.204 242.499C205.885 248.631 206.657 254.808 207.52 260.895C207.929 263.892 208.565 266.845 209.11 269.842C203.296 270.933 197.21 271.069 191.033 272.976C191.759 273.839 192.168 274.248 192.532 274.702C192.168 275.565 191.896 276.519 191.396 277.291C190.624 278.381 191.033 279.199 191.351 280.289C191.669 281.243 191.169 282.424 190.987 283.787C191.305 283.923 191.987 284.15 192.486 284.559C193.304 285.24 193.758 288.238 193.077 289.146C192.804 289.509 192.077 289.555 191.532 289.646C191.441 289.646 191.351 289.691 191.305 289.691C192.986 290.372 194.575 291.326 195.938 292.734C199.481 296.323 203.387 299.502 207.929 301.818C210.473 303.09 212.925 304.589 215.423 305.997C214.878 307.042 214.333 308.086 213.834 309.086C213.516 308.949 213.152 308.859 212.971 308.677C209.201 305.407 204.886 303.544 199.799 303.999C199.299 304.044 198.663 303.862 198.3 303.544C197.528 302.908 196.892 302.136 196.211 301.41C194.621 299.774 192.622 300.32 190.806 300.456C190.261 300.501 189.67 301.364 189.398 301.955C188.989 302.772 188.716 303.726 188.535 304.68C187.899 307.587 187.217 310.494 186.854 313.446C186.672 314.718 186.854 316.262 188.807 316.58C189.716 316.716 190.533 317.261 191.85 317.806C193.304 316.625 195.257 315.081 197.21 313.491C198.255 315.263 199.435 316.716 202.024 315.899C201.343 313.946 200.707 312.038 200.026 310.176C201.934 308.586 205.295 308.859 207.202 310.539C209.155 312.265 211.199 313.809 213.334 315.581C212.289 316.853 210.972 318.124 210.018 319.623C206.839 324.71 203.705 329.797 200.707 334.975C200.389 335.475 200.934 337.155 201.071 337.155C203.16 337.155 203.523 339.972 205.749 339.881C206.43 339.881 207.248 340.562 207.884 339.881C209.519 338.064 211.154 336.202 212.607 334.203C213.425 333.068 213.561 331.251 214.56 330.479C216.695 328.844 217.649 326.482 219.148 324.483C219.42 324.12 219.738 323.756 220.147 323.575C221.51 323.03 222.1 322.03 222.191 320.668C222.282 319.305 222.418 317.897 222.554 316.535C222.691 315.217 224.053 314.672 225.053 315.535C226.415 316.762 227.642 316.625 228.959 315.626C229.822 314.99 230.73 314.354 231.775 313.582C234.545 315.217 237.498 316.898 240.359 318.715C247.49 323.257 255.03 326.255 263.705 326.164C268.247 326.118 272.381 325.028 276.241 322.757C278.512 321.44 280.147 319.669 281.192 317.216C282.873 313.219 282.282 309.131 281.374 305.18C279.693 298.049 277.558 291.054 275.833 283.968C275.696 283.378 275.56 282.787 275.469 282.197C275.424 282.197 275.424 282.197 275.378 282.151C275.424 282.106 275.424 282.061 275.469 282.015C276.241 280.789 277.195 280.562 278.104 280.653C278.876 280.698 279.602 280.97 280.284 281.152C290.594 283.378 300.859 285.876 311.17 287.965C318.164 289.373 325.295 290.282 332.335 291.417C333.017 291.508 333.653 291.735 334.289 291.871C334.243 292.053 334.243 292.235 334.198 292.462C314.939 290.1 295.681 287.647 276.741 282.515C276.65 282.606 276.559 282.696 276.468 282.787C276.741 283.469 277.059 284.422 277.513 285.331C277.831 285.967 278.24 286.557 278.649 287.148C279.103 287.829 279.375 288.783 280.011 289.192C283.645 291.644 287.914 292.507 292.048 293.552C297.589 294.96 303.176 296.05 308.762 297.186C314.167 298.276 319.572 299.275 325.023 300.138C326.022 300.32 327.339 300.002 328.202 299.457C329.747 298.412 329.156 296.413 329.656 294.869C329.701 294.687 329.065 294.188 328.702 294.006C328.111 293.734 327.476 293.643 326.84 293.461C327.93 293.279 328.929 293.643 329.928 293.597C332.108 293.506 334.425 293.779 335.969 291.599C337.74 288.964 337.377 286.148 336.787 283.287C335.878 278.881 333.562 275.157 331.382 271.341C330.927 270.524 330.337 269.797 330.019 269.297C331.064 267.662 332.926 267.072 332.335 264.937C332.245 264.71 332.926 264.256 333.244 263.892C334.697 265.21 335.606 264.074 336.514 262.893C337.241 264.982 337.877 266.89 338.513 268.798C341.374 277.382 345.962 284.922 352.275 291.372C354.41 293.552 356.499 295.777 358.543 298.003C359.815 299.366 360.905 299.184 362.268 297.049C363.812 298.276 365.311 299.547 366.9 300.683C370.443 303.226 374.531 304.498 378.71 305.543C380.572 305.997 381.753 305.634 382.434 304.089C383.025 302.227 382.661 301.319 380.89 300.274ZM97.3759 273.794C94.9232 273.612 92.3797 273.612 90.0178 273.067C86.6113 272.295 83.6589 270.66 82.7051 266.936C82.5689 266.345 82.6597 265.482 83.0231 264.982C84.9307 262.257 87.6105 260.622 90.8808 259.85C96.8763 258.442 102.917 257.17 108.913 255.808V269.161C104.961 268.934 101.282 268.707 97.603 268.48V265.3C100.51 264.483 103.235 263.711 105.96 262.893C105.324 262.848 104.643 262.757 104.007 262.757C101.827 262.757 99.6469 262.757 97.4667 262.757C96.8763 261.349 95.1503 260.758 93.924 261.44C92.7884 262.03 93.1064 263.529 94.6507 264.528C95.1957 264.892 95.6499 265.028 95.7408 265.982C95.9679 268.026 95.1049 268.843 93.1518 269.025C94.5598 270.933 95.2866 271.069 96.8763 269.979C97.1942 269.752 97.6938 269.797 98.1026 269.797C101.237 269.797 104.371 269.797 107.505 269.797C108.504 269.797 109.412 269.661 108.958 271.25C108.731 272.113 109.14 273.113 109.276 274.43C105.143 274.203 101.282 274.021 97.3759 273.794ZM140.707 292.643C141.207 296.777 141.752 300.865 142.206 304.589C140.843 304.18 139.435 303.726 137.755 303.181C137.482 299.82 137.21 296.095 136.892 292.235C138.3 292.371 139.526 292.507 140.707 292.643ZM132.758 242.817C132.577 240.092 132.395 237.639 132.213 235.141C135.938 234.097 139.344 234.687 142.705 236.141C143.16 236.322 143.523 236.958 143.659 237.412C144.023 238.73 144.204 240.092 144.477 241.546C140.571 242 136.71 242.409 132.758 242.817ZM198.391 305.089C197.164 307.587 195.847 310.039 194.575 312.538C194.348 312.401 194.121 312.311 193.894 312.22C195.03 309.631 196.12 307.087 197.301 304.544C197.482 304.18 198.073 304.044 198.527 303.771C198.482 304.18 198.572 304.725 198.391 305.089ZM222.736 234.369H224.19C223.781 236.413 224.689 238.548 222.736 240.501V234.369ZM226.869 246.587C227.46 246.769 227.642 248.268 228.096 249.403C223.69 248.767 219.875 248.222 215.923 247.677C215.015 252.764 215.832 257.988 216.831 263.166V251.175C217.558 251.266 218.285 251.356 219.102 251.402C219.148 251.402 219.193 251.402 219.193 251.402C219.148 251.311 219.239 251.175 219.375 251.084C218.83 250.902 218.194 250.766 217.694 250.493C217.24 250.221 216.877 249.767 216.196 249.131C220.056 250.039 223.327 250.857 226.642 251.583C227.959 251.856 228.822 252.265 228.959 253.764C229.004 254.445 229.413 255.126 229.685 255.853C228.777 256.035 227.959 256.08 227.233 256.262C224.735 256.898 224.371 257.715 224.825 260.259C225.098 261.894 224.962 263.574 225.234 265.21C225.416 266.209 226.006 267.163 226.324 268.026C221.51 268.525 216.604 269.025 211.563 269.525C212.698 265.028 212.244 260.486 211.926 255.944C211.608 251.447 211.426 246.905 211.154 242.409C216.286 243.726 221.601 245.043 226.869 246.587ZM220.647 315.036C219.511 318.942 218.285 322.757 216.968 326.618C216.741 327.254 216.241 327.844 215.741 328.298C212.789 330.887 209.837 333.431 206.839 335.929C206.476 336.247 205.885 336.292 205.386 336.429C205.567 335.975 205.613 335.429 205.885 335.157C208.792 332.205 211.835 329.389 214.606 326.345C215.287 325.573 215.378 324.12 215.423 322.939C215.469 319.532 216.786 316.671 218.875 314.036C219.42 313.355 219.784 312.538 220.238 311.765C220.42 311.765 220.601 311.72 220.783 311.72C220.783 312.856 220.965 314.036 220.647 315.036ZM276.468 315.445C272.29 314.082 268.247 312.719 264.205 311.402C261.116 310.357 258.073 309.267 254.985 308.314C253.577 307.905 251.987 307.496 250.533 307.678C247.218 308.041 244.492 306.451 241.631 305.316C233.455 302.091 225.28 298.775 217.149 295.414C215.151 294.597 213.289 293.597 211.381 292.553C216.831 293.325 222.236 294.46 227.732 294.551C227.823 294.006 227.778 294.188 227.869 293.643C225.007 293.007 222.191 292.371 219.33 291.735C214.878 290.781 210.427 289.737 205.931 288.964C204.023 288.646 202.479 288.101 201.479 286.375C202.524 286.194 203.478 285.967 204.477 285.785C204.477 285.649 204.477 285.467 204.523 285.331C203.75 285.24 203.024 285.149 202.297 285.104C201.57 285.058 200.843 285.013 200.117 284.922V284.468C200.298 284.422 200.48 284.377 200.662 284.377C206.839 284.241 213.016 284.15 219.193 283.968C220.919 283.923 222.6 283.787 224.28 283.605C225.643 283.469 226.097 282.469 226.415 281.107C215.923 280.562 205.613 279.971 195.166 279.426C195.166 279.426 195.075 279.381 195.075 279.29C194.712 275.157 194.712 275.338 198.936 275.111C202.933 274.884 206.839 274.203 210.791 273.703C214.56 273.249 218.285 272.795 222.055 272.204C225.598 271.614 229.05 270.796 232.547 270.115C232.501 269.797 232.547 269.615 232.502 269.57C230.367 267.753 229.595 265.482 230.003 262.757C230.094 262.212 229.867 261.576 229.731 260.758C231.82 261.985 233.864 263.12 235.817 264.301C237.997 265.664 240.087 267.163 242.312 268.434C244.402 269.661 246.128 271.523 248.807 271.841C249.943 271.977 251.033 272.659 251.714 274.112C253.486 277.746 255.666 281.152 257.664 284.649C257.937 285.104 257.891 285.694 258.119 286.148C258.346 286.603 258.664 286.966 258.982 287.375C259.617 288.192 260.39 288.919 260.935 289.782C262.388 292.008 262.388 292.053 264.659 290.463C264.205 289.237 263.705 288.011 263.069 286.375C264.296 287.238 265.204 287.829 266.113 288.465C266.158 287.874 266.203 287.329 266.249 286.739C266.249 286.739 266.249 286.739 266.203 286.739C266.158 286.83 266.067 286.966 266.022 287.057L265.885 286.966C265.976 286.875 266.113 286.83 266.203 286.739C266.203 286.739 266.203 286.693 266.249 286.693V286.739C268.702 287.284 271.154 287.783 273.561 288.329C274.515 297.186 275.469 306.179 276.468 315.445ZM330.019 268.934C329.837 268.889 329.61 268.889 329.383 268.843C328.611 265.028 327.884 261.213 327.067 257.443C326.385 254.172 325.613 250.948 324.841 247.723C324.75 247.314 324.296 246.905 323.933 246.723C321.753 245.724 319.572 244.77 317.256 243.726C317.574 242.999 318.073 242.454 319.209 243.044C321.071 244.044 322.933 244.998 324.75 245.951C325.023 245.134 325.25 244.044 325.75 243.09C326.022 242.636 326.794 242.454 327.339 242.136C327.612 242.681 328.111 243.181 328.202 243.726C328.884 248.994 329.519 254.263 330.019 259.532C330.292 262.212 330.337 264.892 330.428 267.571C330.473 267.98 330.155 268.48 330.019 268.934ZM377.892 304.089C376.121 303.045 374.44 301.955 372.623 301.046C368.127 298.775 363.539 296.55 358.997 294.369C358.225 294.006 357.09 293.824 357.68 292.734C357.907 292.326 359.27 292.098 359.906 292.371C363.221 293.87 366.537 295.414 369.716 297.186C372.124 298.548 374.304 300.274 376.575 301.864C377.256 302.318 377.938 302.818 378.619 303.317C378.346 303.544 378.119 303.817 377.892 304.089Z" fill="black"/>
<path d="M410.095 468.602C409.823 468.511 409.596 468.511 409.323 468.557C406.598 470.964 403.055 471.191 399.694 471.736C395.697 472.372 391.745 472.871 388.021 474.461C381.798 477.096 375.394 477.504 368.763 476.596C365.311 476.142 361.677 476.233 358.407 475.233C354.41 474.052 350.594 472.099 346.779 470.283C340.965 467.466 334.834 465.604 328.52 464.423C326.295 464.014 324.069 463.424 321.798 463.379C319.3 463.333 316.756 463.833 314.258 464.105C310.943 464.469 307.672 464.832 304.357 465.15C302.631 465.332 300.859 465.377 299.179 465.468C298.225 468.42 296.181 470.101 293.274 469.919C287.914 469.556 282.6 469.011 277.241 468.511C275.197 468.329 273.107 468.193 271.063 468.102C263.66 467.875 256.347 467.012 249.489 463.833C245.81 462.152 241.994 463.151 238.224 463.379C237.089 463.469 235.908 463.515 234.773 463.651C229.595 464.105 224.417 464.605 219.239 465.105C216.832 465.332 214.424 465.559 212.017 465.877C207.384 466.513 202.706 467.012 198.118 467.921C192.577 468.965 187.127 470.01 181.449 469.965C176.362 469.919 171.32 470.055 166.233 470.328C161.555 470.555 156.922 471.191 152.244 471.327C150.79 471.373 149.11 470.737 147.974 469.828C146.43 468.602 144.795 468.102 143.023 468.102C139.571 468.193 136.12 468.466 132.668 468.784C128.398 469.238 124.946 467.784 121.676 465.059C117.452 461.562 114.318 457.383 112.501 452.205C111.729 450.07 113.137 445.528 114.954 444.03C120.313 439.578 126.899 438.034 133.394 436.308C137.437 435.263 141.525 434.264 145.567 433.356C148.201 432.765 150.836 432.402 153.47 431.857C154.606 431.63 155.741 431.539 155.923 429.858C156.014 429.177 156.831 428.269 157.513 427.951C160.329 426.815 162.282 424.771 164.189 422.546C165.143 421.41 164.326 420.593 163.826 419.82C161.555 416.505 159.057 413.325 156.922 409.919C154.242 405.649 151.562 401.289 149.382 396.747C147.066 391.932 145.113 386.936 143.387 381.894C140.662 373.81 141.252 365.952 146.248 358.866C148.883 355.142 153.016 353.189 157.467 352.19C162.282 351.099 167.142 350.236 172.092 350.691C177.407 351.19 182.721 351.554 187.899 352.644C195.393 354.233 202.842 356.277 210.2 358.503C217.422 360.729 224.508 363.408 231.593 365.952C244.674 370.676 257.846 374.945 271.427 378.079C279.103 379.851 286.779 381.577 294.455 383.484C298.997 384.62 303.448 386.164 307.354 388.889C313.622 393.204 314.667 397.882 311.533 404.832C309.989 408.284 307.809 411.463 306.037 414.824C304.22 418.322 302.858 421.91 303.948 425.998C304.584 428.405 302.676 430.585 299.633 431.221C300.087 431.448 300.723 431.539 300.905 431.902C302.222 434.082 304.357 433.628 306.31 433.628H306.4C306.9 433.31 307.581 433.265 308.49 433.401C308.808 433.447 309.171 433.492 309.489 433.583C314.94 433.31 320.345 432.311 325.75 431.539C333.017 430.494 339.784 427.814 346.734 425.861C351.049 424.635 355.591 424.226 359.997 423.318C364.584 422.364 369.035 423.182 373.396 424.499C376.166 425.316 378.619 426.77 379.8 429.677C379.891 429.54 380.027 429.359 380.118 429.222C380.754 429.313 381.344 429.495 381.98 429.54C382.343 429.586 382.798 429.45 383.115 429.268C386.295 427.179 389.429 425.044 392.29 423.091C393.653 423.908 394.561 424.362 395.47 424.953C397.241 426.088 396.333 427.769 396.06 429.177C395.47 432.584 394.652 435.945 393.971 439.351C394.561 439.442 394.834 439.442 395.016 439.578C396.378 440.578 397.468 440.441 398.331 439.079C398.831 438.352 399.24 437.534 399.694 436.762C403.509 429.949 405.871 422.682 406.007 414.87C406.053 410.101 405.281 405.331 405.008 400.562C404.736 395.975 403.1 391.796 401.057 387.89C398.967 383.938 396.514 380.168 393.926 376.489C390.246 371.357 385.75 366.951 380.663 363.136C380.209 362.772 379.8 362.182 379.573 361.637C378.891 359.866 378.573 358.14 378.664 356.141C378.71 354.052 377.347 351.962 376.62 349.828C380.527 346.785 384.705 343.605 388.838 340.335C391.791 338.018 395.243 335.974 395.197 331.523C395.197 329.979 394.789 328.435 394.561 326.845C394.471 326.164 394.289 325.437 394.38 324.71C394.834 321.395 395.652 318.033 395.697 314.718C395.742 312.401 394.789 310.085 394.062 307.814C392.29 302.227 390.201 296.731 388.521 291.099C385.932 282.424 383.388 273.749 381.208 264.982C379.8 259.259 379.118 253.355 378.119 247.496C377.438 243.408 376.802 239.365 376.212 235.278C375.576 231.053 375.076 226.829 374.44 222.651C373.85 218.745 373.713 214.657 371.488 211.25C367.445 204.937 363.312 198.669 358.997 192.537C356 188.358 355.863 188.358 357.498 183.68C358.407 181.136 359.134 178.457 359.679 175.822C360.542 171.598 358.316 168.737 355 166.466C354.546 166.148 354.183 165.33 354.183 164.694C354.228 162.56 354.41 160.47 354.546 158.335C354.682 156.11 354.364 153.657 355.046 151.613C357.498 144.573 357.907 137.397 357.907 130.039C357.907 123.725 355.364 119.228 350.004 115.958C343.418 111.916 337.65 106.965 332.881 100.697C330.11 97.0633 326.567 93.9293 323.161 90.8407C322.025 89.7961 321.48 88.8422 321.344 87.4342C321.071 84.7998 320.708 82.1654 320.39 79.4856C319.845 75.0345 319.345 70.6287 318.8 66.1775C318.437 63.2252 318.255 60.182 317.619 57.2751C316.348 51.0979 313.759 45.375 310.625 39.8791C306.083 31.9305 300.859 24.527 293.092 19.4399C290.685 17.8502 288.096 15.988 284.78 17.1689C284.462 17.2597 284.008 17.1689 283.736 17.0326C280.465 15.3975 277.195 13.8532 274.061 12.0364C271.2 10.4013 268.52 8.35735 265.068 7.99398C258.891 7.40352 252.85 8.58445 247.172 10.7192C239.224 13.7624 231.457 17.2597 223.781 20.9842C216.468 24.527 209.519 28.7511 203.024 33.7019C200.889 35.2916 198.709 36.9268 196.847 38.789C195.257 40.3787 193.531 42.0138 194.167 44.7845C194.439 46.0108 194.212 47.1918 193.44 48.509C191.169 52.3697 189.171 56.4121 187.399 60.5454C185.582 64.8149 184.129 69.2661 182.494 73.6718C182.312 74.2623 182.176 74.8528 182.04 75.4432C181.676 77.5326 181.313 79.6219 180.949 81.7112V81.7567C180.677 86.2987 181.267 90.7045 182.448 95.1103C182.494 95.2011 182.494 95.2919 182.539 95.3374C183.357 97.3813 184.129 99.4706 185.083 101.469C186.309 103.967 187.808 106.375 188.989 108.873C189.897 110.826 191.351 113.051 191.124 115.004C190.806 118.229 189.307 121.318 188.308 124.452C188.126 125.088 187.944 125.724 187.762 126.314C186.627 128.903 185.719 131.628 184.356 134.126C182.13 138.169 180.177 142.257 179.859 147.026C179.587 150.841 180.495 154.202 182.902 157.2C183.266 157.609 183.584 157.972 183.947 158.381C185.9 160.016 187.853 161.56 189.716 163.241C190.851 164.24 191.85 165.376 192.759 166.602C193.44 167.556 193.349 168.51 191.941 168.691C190.533 168.873 189.08 169.009 187.626 169.055C183.357 169.191 180.495 171.507 178.451 175.096C178.315 175.595 178.179 176.049 178.043 176.549C177.952 177.957 177.952 179.365 177.679 180.728C176.68 185.588 177.634 190.175 179.723 194.535C179.95 194.99 180.132 195.444 180.359 195.943C181.449 197.261 182.539 198.532 183.675 199.804C184.311 200.349 185.31 201.167 185.9 201.666C187.626 202.666 189.307 203.665 190.942 204.619C190.987 204.528 191.033 204.392 191.124 204.301C190.079 202.802 188.989 201.258 188.035 199.668C186.127 196.352 184.401 192.9 186.127 188.949C186.627 187.768 187.535 186.541 188.535 185.769C192.622 182.544 196.892 179.501 201.025 176.322C201.934 175.641 202.751 174.732 203.387 173.824C205.158 171.235 203.841 168.6 202.751 166.375C201.161 163.105 198.981 160.061 196.937 157.064C193.395 151.977 191.078 146.39 190.124 140.304C189.625 137.033 189.579 133.763 190.579 130.538C190.851 129.584 190.851 128.54 190.896 127.495C191.169 122.499 191.669 117.548 191.578 112.552C191.487 108.418 190.851 104.285 190.124 100.243C189.852 98.6985 188.308 97.4721 187.853 95.9278C186.945 92.8847 183.538 91.4312 183.13 88.0247C182.766 84.7998 183.811 81.8929 184.856 79.0314C186.945 73.2176 190.215 68.0851 193.758 63.0435C197.482 57.7293 200.844 52.1426 204.704 46.8738C209.337 40.6058 215.015 35.3825 222.009 31.7488C227.505 28.8874 233.319 27.3885 239.405 26.6163C245.492 25.8442 251.624 25.2991 257.71 24.3453C264.568 23.2552 270.155 25.7988 275.197 29.932C283.054 36.3817 288.914 44.512 294.228 53.0964C297.68 58.6831 301.541 64.0427 304.856 69.7203C308.535 76.0337 311.715 82.6197 315.257 89.0239C316.575 91.3858 318.028 93.7931 319.845 95.837C325.023 101.742 330.564 107.328 336.968 111.961C339.376 113.687 341.919 115.231 344.009 117.275C348.959 122.045 351.912 127.995 352.82 134.808C353.411 139.259 354.001 143.801 353.819 148.252C353.456 155.429 352.003 162.469 348.096 168.737C345.598 172.734 342.373 176.049 338.694 178.911C333.789 182.726 328.793 186.36 323.842 190.13C321.344 192.037 318.936 194.081 316.348 195.807C312.578 198.351 308.217 199.486 303.812 200.304C299.497 201.076 295.136 201.576 290.776 202.166C289.004 202.393 287.142 202.484 285.371 202.666C285.371 202.575 285.371 202.484 285.371 202.393C279.693 202.757 274.016 203.12 268.338 203.529C262.706 203.937 257.029 204.21 251.396 204.8C247.854 205.164 244.311 206.118 240.768 206.663C237.316 207.208 233.819 207.707 230.321 208.025C225.916 208.389 221.464 208.57 217.059 208.752C215.923 208.797 214.788 208.389 213.652 208.434C209.655 208.616 205.613 208.888 201.616 209.206C201.161 209.252 200.526 209.615 200.344 210.024C199.663 211.523 198.345 211.159 197.346 210.841C195.302 210.296 194.076 208.752 192.986 206.981C192.804 206.708 192.668 206.436 192.441 206.163C189.125 216.473 187.944 227.193 186.082 237.549C183.266 236.867 180.359 236.05 177.361 235.459C174 234.823 171.048 236.867 170.957 239.729H167.868C167.868 238.593 168.095 237.503 167.778 236.504C167.505 235.641 166.824 234.505 166.097 234.278C162.69 233.143 159.148 232.643 155.559 233.006C155.287 233.006 155.06 233.006 154.833 233.052C153.833 233.824 152.289 234.369 151.88 235.368C151.199 237.185 151.154 239.274 150.836 241.409C150.064 241.5 148.973 241.591 147.838 241.682C148.247 239.365 148.746 237.276 148.973 235.187C149.019 234.46 149.201 233.143 147.793 233.097C146.884 233.052 146.385 232.643 145.976 232.053C145.249 231.644 144.431 231.19 143.705 230.781C143.705 230.781 142.705 230.781 141.888 230.781C141.888 229.736 141.979 228.782 141.888 227.874C141.661 226.012 141.479 224.15 140.979 222.378C140.525 220.788 139.072 220.289 137.8 221.152C135.892 222.469 134.076 224.513 135.12 227.329C135.529 228.464 135.62 229.736 135.847 230.963C134.621 231.144 133.44 231.19 132.395 231.553C128.58 232.961 127.126 232.916 127.49 237.639C127.626 239.638 128.126 241.636 128.489 243.635C127.217 243.817 125.945 243.907 124.719 244.134C121.312 244.725 117.951 245.225 114.59 246.042C112.41 246.587 110.366 247.586 110.184 250.312C110.139 251.175 110.184 251.992 110.184 252.719C105.688 253.082 101.373 253.4 97.058 253.764C91.9255 254.218 87.2472 255.808 83.6136 259.759C81.6605 261.894 80.0708 264.392 80.2525 267.299C80.7067 273.612 85.1579 278.245 90.9717 278.926C92.198 279.063 93.4698 279.199 94.7415 279.199C97.921 279.154 101.1 279.108 104.234 278.881C106.051 278.745 107.823 278.2 109.73 277.836C109.73 278.381 109.821 278.926 109.73 279.381C109.049 282.106 109.367 284.786 110.139 287.466C110.866 289.827 112.228 291.417 114.817 291.917C115.907 292.144 116.998 292.553 118.042 293.007C122.675 295.232 127.217 297.64 131.941 299.684C134.212 300.637 134.984 302 135.029 304.316C135.075 305.316 135.438 306.769 136.165 307.133C137.936 308.086 138.118 309.358 137.936 311.039C137.891 311.447 138.027 311.902 138.163 312.265C138.799 313.718 139.799 315.126 140.071 316.625C140.389 318.76 140.117 320.986 140.162 323.166C140.253 326.027 140.48 328.934 140.616 331.66C140.026 331.614 139.344 331.432 138.708 331.478C135.438 331.614 132.213 331.796 128.943 331.977C127.717 332.023 126.536 332.114 125.309 332.159C125.309 332.159 125.309 332.159 125.173 332.159C125.037 332.159 124.764 332.159 124.31 332.159C123.447 332.159 121.903 332.114 119.041 332.023C118.178 331.977 117.225 332.068 116.316 332.25C114.136 332.613 111.865 333.385 109.912 334.203C106.778 335.52 104.462 336.928 104.462 336.928L104.007 337.655C103.735 337.837 103.508 338.018 103.235 338.245C102.599 338.791 102.009 339.426 101.555 340.153C98.6023 344.877 97.3759 345.149 96.6038 354.461C96.6038 354.642 96.5584 354.869 96.5584 355.096C96.3767 357.231 96.2404 359.82 96.1042 363C95.8316 368.859 97.0126 373.81 98.6931 377.852C99.7378 380.35 100.964 382.485 102.19 384.256C105.007 388.344 107.777 390.524 107.959 390.661C109.049 392.25 110.457 393.613 112.455 394.476C114.091 395.157 115.68 395.838 117.043 397.019C117.633 397.519 118.224 398.064 118.86 398.473C123.856 401.789 128.761 405.377 133.939 408.375C141.57 412.78 149.473 416.777 157.195 420.956C158.421 421.637 159.647 422.273 161.01 423C158.739 424.408 156.695 425.589 154.742 426.906C154.242 427.269 153.788 428.132 153.833 428.768C153.833 430.04 153.061 430.222 152.198 430.267C149.291 430.403 146.385 430.403 143.478 430.585C141.842 430.676 140.207 430.812 138.663 431.221C136.619 431.766 134.711 432.72 132.668 433.401C128.989 434.582 125.219 435.49 121.585 436.899C117.588 438.443 114.227 440.896 112.455 445.029C110.911 448.753 110.639 452.523 111.729 456.429C113.001 461.017 114.499 465.332 119.269 467.557C120.722 468.239 121.994 469.329 123.447 470.01C126.218 471.373 128.943 472.781 132.35 471.963C135.347 471.236 138.436 470.964 141.525 470.464C141.434 470.646 141.297 470.782 141.207 470.964C141.615 471.282 142.024 471.827 142.433 471.827C144.068 471.918 145.749 471.872 147.384 471.872C153.879 471.781 160.419 471.6 166.915 471.509C172.774 471.463 178.588 471.509 184.447 471.509H203.978C203.614 470.6 203.478 470.237 203.296 469.828C205.567 469.647 207.747 469.51 209.882 469.283C212.744 469.011 215.651 468.602 218.512 468.284C220.556 468.057 222.645 467.784 224.689 467.784C228.868 467.739 233.001 467.966 237.18 467.784C240.496 467.648 243.766 466.831 247.081 466.785C249.943 466.785 252.85 467.33 255.666 467.83C259.663 468.557 263.569 469.465 267.521 470.328C271.699 471.282 275.878 472.781 280.102 473.144C285.325 473.553 290.594 473.053 295.863 472.962C296.181 472.962 296.499 472.735 296.862 472.599C297.589 472.326 298.316 471.918 299.088 471.872C301.722 471.736 304.175 471.009 306.219 469.374C306.809 468.92 307.127 468.057 307.672 467.103C308.354 467.012 309.625 466.694 310.852 466.694C316.665 466.74 322.479 466.876 328.248 467.058C329.202 467.103 330.201 467.194 331.064 467.512C334.743 468.829 338.422 470.101 341.965 471.691C349.868 475.279 357.998 478.049 366.582 479.503C368.218 479.775 369.944 479.912 371.624 479.866C372.987 479.821 374.349 479.367 375.712 479.14C380.027 478.413 384.387 477.731 388.657 476.914C391.927 476.278 395.197 475.551 398.468 474.734C402.192 473.734 405.871 472.554 409.596 471.418C410.141 471.236 410.686 470.873 411.094 470.51C411.458 470.192 411.594 469.647 411.867 469.238C411.094 469.056 410.64 468.784 410.095 468.602ZM184.674 298.003C181.404 302.045 178.315 306.224 175.09 310.267C174.772 310.675 173.955 311.039 173.455 310.902C170.684 310.312 167.868 309.676 165.143 308.813C161.282 307.632 157.467 306.315 153.652 304.998C153.198 304.862 152.789 304.407 152.562 303.953C152.062 303.045 151.744 302.045 151.244 300.91C162.736 298.593 174.182 296.232 185.673 293.915C186.082 295.55 185.673 296.777 184.674 298.003ZM324.251 338.245C323.978 338.654 323.251 338.972 322.752 338.972C320.89 338.927 319.027 338.881 317.211 338.609C317.211 338.654 317.256 338.7 317.256 338.7C316.393 338.7 315.802 338.836 315.303 338.7C314.258 338.382 313.214 338.064 312.169 337.746C309.262 337.201 306.4 336.656 303.539 336.02C296.272 334.43 289.05 332.75 282.191 329.888C280.102 329.025 278.967 327.617 279.512 326.572C279.92 325.8 282.555 325.392 283.872 325.8C286.824 326.663 289.822 327.526 292.865 328.253C293.365 328.389 294.092 327.844 294.637 327.572C296.317 326.754 298.043 327.753 297.998 329.525C303.993 331.16 309.943 332.886 315.939 334.43C317.619 334.884 319.482 334.612 321.162 335.021C322.207 335.248 323.161 336.065 324.069 336.747C324.342 337.019 324.478 337.973 324.251 338.245ZM136.12 304.407C135.484 303.181 134.711 302 134.439 300.683C134.121 299.139 133.167 298.412 131.986 297.776C126.4 294.914 120.767 292.053 115.181 289.191C112.138 287.647 111.184 284.74 110.457 281.743C110.139 280.38 109.821 279.063 109.685 277.655C109.549 276.247 108.731 276.065 107.686 276.338C100.646 278.2 93.6969 277.609 86.9292 275.111C80.8429 272.886 79.9799 267.117 83.9769 262.666C88.7006 257.397 94.7415 255.49 101.555 255.262C104.144 255.172 106.687 255.035 109.276 254.854C109.639 254.808 110.139 254.49 110.321 254.127C112.274 249.857 116.044 248.313 120.222 247.541C122.902 247.087 125.673 247.132 128.489 246.905C128.307 246.133 128.08 245.27 127.853 244.452C127.989 244.498 128.126 244.498 128.262 244.543C128.443 243.68 128.989 242.681 128.807 241.909C128.307 239.91 128.262 238.139 129.715 236.504C131.487 234.551 133.394 232.825 136.256 232.734C137.891 232.689 139.571 232.87 141.252 232.689C142.66 232.552 143.614 233.188 144.114 234.187C145.385 236.776 147.384 239.093 147.384 242.181V243.453C149.019 243.589 150.699 243.726 152.425 243.907C152.107 242.545 151.562 241.364 151.608 240.183C151.699 237.503 154.833 235.005 157.558 234.96C158.921 234.914 160.101 235.141 161.192 235.55C161.282 235.55 161.328 235.55 161.419 235.55C164.326 235.595 164.598 238.139 166.324 239.683C166.233 239.683 166.142 239.683 166.052 239.729C166.097 239.774 166.142 239.865 166.188 239.91C166.96 241.137 168.05 242.136 169.095 243.135C169.322 243.317 170.412 243.044 170.594 242.726C171.956 239.638 173.773 238.23 175.999 237.73C176.907 237.185 177.952 237.185 179.223 237.503C179.314 237.503 179.36 237.549 179.451 237.549C180.132 237.594 180.859 237.685 181.585 237.776C181.812 237.821 181.994 237.866 182.221 237.866C183.402 237.957 184.674 237.957 186.036 238.094C185.264 238.139 184.492 238.23 183.765 238.275C185.401 238.775 186.99 239.456 188.671 239.91C189.988 240.274 191.396 240.319 192.759 240.501C192.986 240.546 193.395 240.455 193.44 240.319C194.121 238.684 195.756 239.002 196.937 238.729C199.663 238.094 202.433 237.321 205.204 237.367C207.066 237.367 209.428 236.776 210.881 238.866C211.109 239.184 211.744 239.411 212.153 239.365C213.47 239.275 214.788 239.047 216.15 238.911C217.286 238.775 217.377 238.139 217.286 237.094C217.013 234.778 217.013 232.461 216.741 230.19C216.604 228.873 217.013 227.692 218.103 227.284C219.057 226.92 220.283 227.284 221.374 227.329C222.282 227.374 223.145 227.511 224.053 227.647C224.962 227.738 225.916 227.874 226.96 228.01C230.957 225.285 235.272 222.378 239.542 219.426C242.585 217.336 245.446 215.02 248.58 213.067C251.396 211.296 254.394 209.706 257.483 208.479C260.617 207.253 263.932 206.572 267.203 205.709C268.474 205.391 269.792 205.118 271.109 205.118C274.561 205.028 278.058 204.755 281.465 205.209C285.825 205.8 290.185 206.935 294.455 208.025C300.768 209.615 305.265 213.748 309.217 218.745C311.397 221.47 313.804 224.15 316.529 226.33C319.845 229.009 322.298 232.007 323.342 236.231C323.796 238.139 324.796 239.91 325.522 241.727C325.704 241.682 325.886 241.636 326.068 241.591C326.022 240.955 325.977 240.319 325.977 239.683C325.977 239.365 325.931 239.047 325.977 238.775C326.068 237.594 328.747 234.642 329.837 234.142C331.109 233.552 331.79 233.96 332.245 235.096C333.607 238.82 335.106 242.545 336.242 246.315C338.694 254.172 340.647 262.166 343.373 269.888C345.235 275.202 348.187 280.062 352.139 284.241C352.593 284.695 353.002 285.285 353.365 285.83C355.091 288.419 357.635 289.328 360.496 289.146C364.266 288.919 367.173 290.872 370.262 292.371C370.897 292.689 371.624 292.871 372.124 293.325C373.577 294.596 375.621 294.914 376.484 297.231C376.984 298.594 379.391 299.32 381.026 300.229C382.798 301.273 383.161 302.136 382.389 303.953C381.707 305.497 380.527 305.861 378.664 305.407C374.486 304.407 370.398 303.09 366.855 300.547C365.265 299.411 363.766 298.139 362.222 296.913C360.86 299.048 359.769 299.229 358.498 297.867C356.408 295.641 354.364 293.37 352.23 291.235C345.916 284.74 341.329 277.246 338.467 268.661C337.831 266.754 337.195 264.892 336.469 262.757C335.56 263.983 334.652 265.073 333.199 263.756C332.881 264.119 332.245 264.574 332.29 264.801C332.881 266.935 331.018 267.571 329.974 269.161C330.292 269.661 330.882 270.387 331.336 271.205C333.516 275.02 335.833 278.79 336.741 283.151C337.332 286.012 337.695 288.828 335.924 291.463C334.425 293.688 332.063 293.37 329.883 293.461C328.884 293.506 327.884 293.143 326.794 293.325C327.43 293.506 328.066 293.597 328.656 293.87C329.065 294.051 329.701 294.551 329.61 294.733C329.156 296.277 329.701 298.276 328.157 299.32C327.294 299.911 326.022 300.183 324.977 300.002C319.527 299.139 314.122 298.139 308.717 297.049C303.13 295.914 297.498 294.824 292.002 293.416C287.869 292.371 283.599 291.508 279.966 289.055C279.33 288.646 279.057 287.693 278.603 287.011C278.24 286.421 277.786 285.83 277.468 285.194C277.059 284.286 276.741 283.332 276.423 282.651C276.514 282.56 276.605 282.469 276.696 282.378C276.287 282.288 275.878 282.151 275.469 282.06C275.56 282.651 275.696 283.241 275.833 283.832C277.513 290.963 279.693 297.958 281.374 305.043C282.282 308.995 282.873 313.037 281.192 317.08C280.148 319.532 278.512 321.304 276.241 322.621C272.335 324.846 268.247 325.982 263.705 326.027C255.03 326.118 247.49 323.121 240.359 318.578C237.498 316.762 234.545 315.081 231.775 313.446C230.73 314.218 229.822 314.809 228.959 315.49C227.642 316.489 226.37 316.625 225.053 315.399C224.053 314.491 222.736 315.081 222.554 316.398C222.418 317.761 222.282 319.169 222.191 320.532C222.1 321.894 221.464 322.893 220.147 323.438C219.738 323.575 219.42 323.983 219.148 324.347C217.604 326.345 216.695 328.753 214.56 330.342C213.561 331.114 213.425 332.931 212.607 334.067C211.154 336.065 209.519 337.882 207.884 339.744C207.248 340.426 206.43 339.744 205.749 339.744C203.569 339.79 203.205 336.974 201.071 337.019C200.934 337.019 200.435 335.384 200.707 334.839C203.75 329.661 206.839 324.529 210.018 319.487C210.972 317.988 212.289 316.671 213.334 315.444C211.199 313.673 209.155 312.129 207.202 310.403C205.249 308.722 201.934 308.45 200.026 310.039C200.662 311.947 201.343 313.855 202.024 315.762C199.436 316.535 198.255 315.127 197.21 313.355C195.211 314.945 193.304 316.489 191.85 317.67C190.533 317.125 189.716 316.625 188.807 316.444C186.854 316.126 186.672 314.581 186.854 313.31C187.217 310.357 187.944 307.45 188.535 304.544C188.716 303.635 188.989 302.681 189.398 301.818C189.716 301.228 190.306 300.365 190.806 300.319C192.668 300.183 194.666 299.638 196.211 301.273C196.892 302 197.528 302.772 198.3 303.408C198.709 303.726 199.345 303.908 199.799 303.862C204.931 303.408 209.201 305.27 212.971 308.541C213.198 308.722 213.516 308.813 213.834 308.949C214.333 307.95 214.878 306.905 215.423 305.861C212.925 304.453 210.473 302.954 207.929 301.682C203.387 299.366 199.481 296.186 195.938 292.598C194.576 291.235 192.986 290.236 191.305 289.555C190.442 289.646 189.579 289.691 188.762 289.827C187.445 290.054 186.173 290.463 184.81 290.6C182.857 290.827 180.949 291.008 178.996 291.235C172.138 293.143 165.279 295.096 158.375 296.868C154.106 297.958 149.7 298.639 145.34 299.411C144.204 299.593 143.705 300.002 143.841 301.182C143.886 301.591 143.841 302.045 143.841 302.454C143.977 305.543 143.932 305.588 140.979 306.36C139.571 306.905 136.846 305.815 136.12 304.407ZM140.798 311.311C140.026 309.358 140.616 308.359 142.66 308.041C144.25 307.768 145.204 306.633 145.067 305.043C144.931 303.317 145.749 302.273 147.475 301.909C147.611 301.909 147.793 301.864 147.929 301.864C147.838 301.955 147.747 302.045 147.702 302.182C147.838 303.544 147.747 304.952 148.11 306.27C148.565 307.996 149.973 308.223 151.472 306.815C151.699 307.314 152.107 307.814 152.017 308.223C151.744 310.13 152.789 311.538 153.516 313.128C155.332 316.943 157.104 320.759 158.921 324.665C156.786 324.983 156.195 325.846 157.285 327.299C158.921 329.525 160.919 331.569 162.736 333.658C163.19 334.158 163.644 334.612 164.053 335.475C157.285 334.158 150.563 332.795 143.75 331.478C142.251 326.618 143.023 321.531 142.751 316.535C142.66 315.308 142.07 314.082 141.615 312.901C141.479 312.356 141.025 311.856 140.798 311.311Z" fill="black"/>
<path d="M200.071 109.736C200.117 108.373 199.617 107.01 201.752 106.374C204.068 105.648 205.658 106.193 205.93 108.646C206.158 110.871 206.43 113.051 206.566 115.277C206.566 115.731 205.93 116.549 205.613 116.549C204.75 116.549 203.432 116.412 203.114 115.867C201.933 113.914 201.071 111.734 200.071 109.69V109.736Z" fill="black"/>
<path d="M253.622 179.093C249.897 180.591 246.4 182.862 242.176 182.862C245.582 180.364 249.716 180.001 253.622 179.093Z" fill="black"/>
<path d="M319.845 143.983L321.435 152.567C321.253 152.612 321.071 152.612 320.935 152.658C320.39 149.796 319.845 146.935 319.3 144.073C319.481 144.073 319.663 144.028 319.845 143.983Z" fill="black"/>
<path d="M236.635 89.0239C236.09 90.8861 235.227 91.1587 233.728 90.3865C231.185 89.0693 230.549 86.4349 229.368 84.2093C228.687 82.8921 229.731 82.3471 230.958 82.3471C234.909 82.2108 238.906 81.9383 242.858 81.9837C247.445 82.0746 251.987 82.438 256.575 82.7105C256.802 82.7105 257.12 82.6651 257.301 82.8013C258.074 83.3918 259.164 83.9368 259.436 84.709C259.936 86.2533 258.255 86.0262 257.438 86.3441C256.575 86.662 255.712 86.7983 255.439 87.9338C255.348 88.2518 254.485 88.6605 254.122 88.5697C250.443 87.6613 246.764 87.843 243.039 88.2518C240.905 88.4334 238.815 88.706 236.635 89.0239Z" fill="black"/>
<path d="M217.104 121.409C219.284 123.18 221.373 123.589 223.644 123.044C224.416 125.724 222.872 127.404 219.375 127.677C216.604 127.904 213.879 126.132 213.107 123.498C212.925 122.908 212.88 122.09 213.152 121.499C213.879 119.728 214.56 117.911 215.696 116.367C216.468 115.322 217.83 114.732 219.011 114.096C219.329 113.96 220.328 114.414 220.374 114.686C220.51 115.504 220.601 116.503 220.238 117.185C219.329 118.638 218.194 119.955 217.104 121.409Z" fill="black"/>
<path d="M297.044 99.6977C298.906 101.151 301.177 107.056 300.814 109.236C298.225 107.555 296.544 105.421 295.318 102.423C294.864 103.468 294.5 104.285 294.091 105.194C291.866 105.148 291.412 104.512 292.32 102.241C293.228 99.9248 294.591 97.9263 296.953 96.9725C297.907 96.5637 299.042 96.4274 300.087 96.382C300.496 96.382 300.95 97.0179 301.404 97.3813C300.995 97.8809 300.677 98.6076 300.132 98.8801C299.224 99.2889 298.27 99.3798 297.044 99.6977Z" fill="black"/>
<path d="M242.812 97.4267C242.585 98.9256 243.13 99.516 244.492 99.7886C245.037 99.8794 245.719 100.879 245.719 101.469C245.809 102.968 245.628 104.512 245.355 105.966C245.174 106.829 244.356 108.373 244.22 108.328C242.903 107.919 241.313 107.555 240.541 106.556C239.678 105.466 239.541 103.831 239.133 102.378C238.996 101.923 239.087 101.378 239.042 100.924C238.815 99.0618 239.496 98.0172 241.495 98.108C241.858 98.1534 242.176 97.7901 242.812 97.4267Z" fill="black"/>
<path d="M169.821 269.07C168.913 268.934 167.959 268.843 167.005 268.571C166.687 268.48 166.233 268.116 166.187 267.798C166.142 267.571 166.596 267.208 166.778 266.935C167.05 266.527 167.595 266.118 167.55 265.754C167.277 263.075 166.869 260.349 166.596 257.67C166.369 255.671 166.233 253.673 166.142 251.674C166.051 249.994 167.868 248.904 169.957 248.631C175.68 247.859 181.358 247.132 187.081 246.405C190.169 245.997 193.303 245.588 196.392 245.27C197.482 245.134 198.254 245.27 197.982 246.95C197.664 248.904 197.845 250.947 198.118 252.946C198.663 257.034 197.664 260.895 196.346 264.664C196.165 265.209 195.211 265.8 194.53 265.891C187.535 266.845 180.495 267.662 173.5 268.525C172.274 268.707 171.093 268.889 169.821 269.07ZM172.546 251.81V265.391C176.634 264.982 180.722 264.528 184.81 264.21C187.535 263.983 190.306 263.983 193.031 263.756C193.53 263.711 194.393 263.166 194.439 262.802C194.757 258.169 194.303 253.627 193.303 248.767C186.218 249.767 179.268 250.811 172.546 251.81ZM168.776 265.936C170.502 265.845 170.82 265.527 170.502 264.029C170.094 261.803 169.594 259.623 169.14 257.397C169.049 260.213 168.913 263.075 168.776 265.936Z" fill="black"/>
<path d="M152.925 266.708C150.473 266.89 148.292 266.436 146.566 264.437C144.568 262.121 143.796 258.624 145.249 256.489C146.839 254.081 149.564 252.719 152.925 253.582C155.605 254.309 158.785 254.49 160.283 257.715C161.056 259.35 161.373 260.895 160.51 262.439C158.921 265.391 156.559 267.253 152.925 266.708ZM155.423 260.895C155.469 258.987 154.061 256.398 153.243 256.852C151.971 257.579 150.336 258.669 150.064 259.85C149.61 261.894 151.517 264.029 153.062 264.119C154.242 264.21 155.378 262.575 155.423 260.895Z" fill="black"/>
<path d="M137.346 261.258C137.482 264.165 136.347 266.572 134.03 268.162C129.579 271.16 124.265 268.752 122.948 263.393C122.085 259.895 124.946 256.262 128.671 256.035C129.625 255.989 130.488 255.172 131.441 254.99C135.438 254.172 137.755 257.897 137.346 261.258ZM126.854 262.984C128.08 263.62 129.17 264.347 130.397 264.755C132.077 265.346 133.531 263.938 132.804 262.348C132.259 261.167 131.169 260.032 130.033 259.487C129.625 259.305 128.353 260.849 127.535 261.621C127.263 261.894 127.172 262.303 126.854 262.984Z" fill="black"/>
<path d="M172.274 289.282C171.23 290.509 170.367 290.645 169.413 289.691C167.551 287.829 165.734 285.967 163.826 284.013C166.506 282.015 167.006 282.06 168.732 284.286C169.958 285.921 171.093 287.602 172.274 289.282Z" fill="black"/>
<path d="M157.285 284.014C161.736 284.877 163.78 288.374 166.46 291.326C164.416 291.463 157.603 286.057 157.285 284.014Z" fill="black"/>
<path d="M177.588 288.374C176.498 288.465 174.636 286.557 172.047 282.651C173.455 282.833 174.636 282.651 175.272 283.151C176.907 284.422 177.543 286.285 177.588 288.374Z" fill="black"/>
<path d="M266.385 288.556C266.476 288.556 266.566 288.51 266.657 288.465C266.657 288.556 266.612 288.646 266.612 288.737C266.566 288.646 266.476 288.556 266.385 288.51V288.556Z" fill="black"/>
<path d="M219.329 251.129C220.238 251.311 221.146 251.493 222.054 251.72C222.009 251.856 222.009 251.992 221.964 252.128C221.01 251.901 220.01 251.72 219.057 251.493C219.147 251.311 219.238 251.22 219.329 251.129Z" fill="black"/>
<path d="M106.188 263.211C106.324 263.029 106.46 262.848 106.596 262.621C106.687 262.666 106.733 262.757 106.823 262.802C106.596 262.939 106.369 263.075 106.188 263.211Z" fill="black"/>
<path d="M183.993 255.308C185.946 255.444 185.719 257.216 186.355 258.26C186.446 258.442 186.128 259.078 185.81 259.259C185.583 259.396 184.992 259.214 184.765 258.987C183.039 257.397 182.948 256.852 183.993 255.308Z" fill="black"/>
<path d="M128.671 331.978C127.445 332.023 126.264 332.114 125.037 332.159C125.037 332.159 125.037 332.159 124.901 332.159C124.765 332.159 124.492 332.159 124.038 332.159C124.22 332.114 124.401 332.068 124.583 332.068C126.127 331.75 127.626 331.66 128.671 331.978Z" fill="black"/>
<path d="M254.894 244.498H252.669V250.312H251.942V244.498H249.671V243.862H254.894V244.498Z" fill="white"/>
<path d="M255.802 247.723L257.619 247.541C257.574 246.723 257.119 246.315 256.347 246.315C255.666 246.315 255.076 246.587 255.076 247.45H254.349C254.349 246.496 255.076 245.679 256.347 245.679C257.619 245.679 258.391 246.542 258.391 247.723V249.676H259.073V250.312H258.255C257.892 250.312 257.71 250.13 257.71 249.767V249.54L257.846 249.085H257.619C257.437 249.767 256.938 250.448 255.848 250.448C254.53 250.448 254.349 249.585 254.349 249.085C254.303 248.313 254.758 247.814 255.802 247.723ZM255.939 249.721C256.983 249.721 257.619 248.995 257.619 248.086L255.939 248.268C255.348 248.313 255.076 248.495 255.076 248.949C255.076 249.449 255.393 249.721 255.939 249.721Z" fill="white"/>
<path d="M259.664 249.63H260.935V244.089L259.982 244.18V243.544L261.026 243.453C261.435 243.408 261.662 243.635 261.662 244.089V249.63H262.934V250.266H259.618V249.63H259.664Z" fill="white"/>
<path d="M265.659 245.633C266.93 245.633 267.793 246.451 267.793 247.859V248.132H264.205C264.251 248.995 264.659 249.721 265.795 249.721C266.567 249.721 267.067 249.358 267.203 248.677H267.975C267.793 249.403 267.248 250.357 265.795 250.357C264.16 250.357 263.479 249.222 263.479 247.95C263.479 246.496 264.387 245.633 265.659 245.633ZM267.067 247.586C267.067 246.86 266.567 246.269 265.659 246.269C264.75 246.269 264.205 246.86 264.205 247.586H267.067Z" fill="white"/>
<path d="M269.747 248.268V250.266H268.975V245.724H269.747V246.496L269.611 246.996H269.838C270.019 246.178 270.61 245.588 271.609 245.588C272.654 245.588 273.29 246.178 273.29 247.45V250.221H272.563V247.541C272.563 246.587 272.199 246.224 271.427 246.224C270.428 246.269 269.747 247.041 269.747 248.268Z" fill="white"/>
<path d="M277.332 249.63V250.266L275.606 250.357C275.197 250.402 274.97 250.175 274.97 249.721V246.36H273.971V245.724H274.97V244.543L275.697 244.316V245.724H277.105V246.36H275.697V249.721L277.332 249.63Z" fill="white"/>
<path d="M278.104 249.63H279.376V246.269L278.422 246.36V245.724L279.467 245.633C279.875 245.588 280.057 245.815 280.057 246.178V249.63H281.329V250.266H278.059V249.63H278.104ZM278.967 244.362C278.967 243.998 279.24 243.726 279.648 243.726C280.012 243.726 280.33 243.998 280.33 244.362C280.33 244.725 280.057 244.998 279.648 244.998C279.285 244.998 278.967 244.725 278.967 244.362Z" fill="white"/>
<path d="M283.827 245.043V245.724H285.144V246.36H283.827V249.63H285.144V250.266H282.056V249.63H283.055V246.36H282.056V245.724H283.055V245.043C283.055 244.135 283.509 243.544 284.599 243.544H285.371V244.18H284.554C284.009 244.225 283.827 244.452 283.827 245.043Z" fill="white"/>
<path d="M290.731 245.724L288.733 250.221V251.493C288.733 251.856 288.551 252.038 288.097 252.038L286.325 251.947V251.311L287.96 251.402V250.266L285.962 245.77H286.779L288.187 249.312V249.676H288.415V249.312L289.823 245.77H290.731V245.724Z" fill="white"/>
<path d="M240.905 136.897C237.407 140.531 235.999 141.484 235.363 141.666C235.227 141.712 234.364 142.211 233.047 142.529C233.047 142.529 233.047 142.529 233.001 142.529C231.593 143.12 227.051 144.028 228.505 143.619C229.595 143.347 229.504 143.665 225.598 143.846C223.645 144.028 221.646 144.073 219.875 142.847C220.511 142.665 221.51 142.438 222.691 142.211C226.098 141.53 226.915 141.666 229.64 141.212C231.366 140.894 234.182 140.394 237.362 138.895C238.906 138.169 240.087 137.442 240.905 136.897Z" fill="black"/>
</svg>
